<svg width="151" height="52" viewBox="0 0 151 52" xmlns="http://www.w3.org/2000/svg"><g fill="#FFF" fill-rule="nonzero"><path d="M1 1h6v34H1zM28 25.307c0 3.11-.844 5.507-2.523 7.18C23.8 34.158 21.375 35 18.217 35c-2.185 0-4.092-.43-5.701-1.3-1.619-.871-2.791-2.084-3.516-3.65l3.685-4.48c.397 1.126 1.122 2.035 2.165 2.75 1.043.704 2.165 1.066 3.367 1.066 1.232 0 2.155-.314 2.79-.93.636-.616.954-1.526.954-2.719 0-1.037-.427-1.986-1.271-2.827-.844-.841-2.344-1.907-4.49-3.208-2.353-1.418-4.022-2.866-4.985-4.333-.973-1.467-1.46-3.199-1.46-5.194 0-2.788.844-5.018 2.533-6.68C13.976 1.83 16.26 1 19.13 1c1.748 0 3.287.352 4.618 1.066 1.331.714 2.443 1.77 3.337 3.18L23.491 9.52c-.378-.832-.983-1.526-1.818-2.074-.844-.548-1.708-.822-2.622-.822-1.033 0-1.857.294-2.463.88a2.902 2.902 0 0 0-.914 2.162c0 1.732 1.41 3.434 4.241 5.096.517.294.914.529 1.202.695 2.483 1.506 4.251 3.003 5.304 4.5C27.474 21.442 28 23.222 28 25.306ZM50 11.375c0 3.17-1.006 5.698-3.017 7.583-2.011 1.886-4.734 2.833-8.157 2.833h-.853V35H32V1h6.826c3.616 0 6.38.887 8.3 2.67C49.045 5.464 50 8.022 50 11.375Zm-6.176 0c0-1.62-.406-2.843-1.23-3.69-.822-.845-2.02-1.263-3.605-1.263h-1.016v9.957h1.016c1.706 0 2.935-.397 3.697-1.182.762-.785 1.138-2.059 1.138-3.822ZM80 18c0 4.998-1.263 9.077-3.798 12.246C73.666 33.416 70.375 35 66.308 35c-4.126 0-7.547-1.604-10.251-4.812C53.352 26.979 52 22.92 52 18c0-4.91 1.352-8.98 4.057-12.188C58.76 2.604 62.182 1 66.308 1c2.456 0 4.723.597 6.791 1.78a12.848 12.848 0 0 1 4.863 4.91l-4.485 3.59c-.775-1.35-1.75-2.357-2.933-3.022-1.183-.665-2.585-.988-4.236-.988-2.525 0-4.534.978-6.025 2.944-1.492 1.966-2.247 4.558-2.247 7.786 0 3.228.745 5.82 2.247 7.786 1.491 1.966 3.5 2.944 6.025 2.944 1.76 0 3.212-.499 4.365-1.487 1.154-.988 2.029-2.504 2.645-4.528h-7V17.09H80V18ZM107 35h-6.455l-1.938-7.534H88.423L86.465 35H80L90.076 1h6.878L107 35Zm-9.76-12.937L93.49 7.596l-3.73 14.467h7.48ZM128 1l-9.041 18.942V35h-5.908V19.942L104 1h6.751l5.334 12.846L121.279 1zM150 35h-6.455l-1.938-7.534h-10.184L129.465 35H123l10.076-34h6.878L150 35Zm-9.76-12.937-3.75-14.467-3.73 14.467h7.48Z"/><g><path d="M2.932 48v-5.808H1.876V48h1.056Zm-.528-8.1c-.396 0-.66.3-.66.66 0 .36.252.648.636.648.42 0 .672-.288.672-.648 0-.372-.264-.66-.648-.66ZM4.834 48H5.89v-3.492c0-.18.024-.36.072-.492.192-.588.732-1.08 1.416-1.08.996 0 1.344.78 1.344 1.716V48h1.056v-3.456c0-1.992-1.248-2.472-2.052-2.472-.96 0-1.632.54-1.92 1.08h-.024l-.06-.96h-.936c.036.48.048.96.048 1.572V48ZM11.248 47.724c.408.24.996.408 1.632.408 1.356 0 2.16-.72 2.16-1.752 0-.864-.528-1.368-1.524-1.74-.756-.3-1.092-.516-1.092-.996 0-.432.336-.792.96-.792.54 0 .96.204 1.188.348l.252-.768c-.312-.204-.828-.36-1.416-.36-1.236 0-2.004.768-2.004 1.704 0 .696.492 1.26 1.548 1.644.768.288 1.068.552 1.068 1.056 0 .492-.36.864-1.116.864-.528 0-1.08-.216-1.404-.408l-.252.792ZM16.786 41.112v1.08h-.9v.804h.9v3.168c0 .684.12 1.2.408 1.524.252.276.648.444 1.14.444.408 0 .732-.072.936-.144l-.048-.804c-.156.048-.324.072-.612.072-.588 0-.792-.408-.792-1.128v-3.132h1.512v-.804h-1.512V40.8l-1.032.312ZM21.724 48v-5.808h-1.056V48h1.056Zm-.528-8.1c-.396 0-.66.3-.66.66 0 .36.252.648.636.648.42 0 .672-.288.672-.648 0-.372-.264-.66-.648-.66ZM23.866 41.112v1.08h-.9v.804h.9v3.168c0 .684.12 1.2.408 1.524.252.276.648.444 1.14.444.408 0 .732-.072.936-.144l-.048-.804c-.156.048-.324.072-.612.072-.588 0-.792-.408-.792-1.128v-3.132h1.512v-.804h-1.512V40.8l-1.032.312ZM32.608 42.192h-1.056v3.552c0 .204-.036.396-.096.54-.192.48-.684.972-1.392.972-.948 0-1.296-.756-1.296-1.86v-3.204h-1.056v3.396c0 2.028 1.092 2.544 2.004 2.544a2.17 2.17 0 0 0 1.92-1.08h.024l.06.948h.936a20.791 20.791 0 0 1-.048-1.596v-4.212ZM34.75 41.112v1.08h-.9v.804h.9v3.168c0 .684.12 1.2.408 1.524.252.276.648.444 1.14.444.408 0 .732-.072.936-.144l-.048-.804c-.156.048-.324.072-.612.072-.588 0-.792-.408-.792-1.128v-3.132h1.512v-.804h-1.512V40.8l-1.032.312ZM41.02 42.072c-1.596 0-2.88 1.14-2.88 3.072 0 1.836 1.224 2.988 2.784 2.988 1.392 0 2.892-.936 2.892-3.084 0-1.764-1.128-2.976-2.796-2.976Zm-.024.792c1.248 0 1.74 1.236 1.74 2.22 0 1.308-.756 2.256-1.764 2.256-1.032 0-1.752-.96-1.752-2.232 0-1.092.54-2.244 1.776-2.244ZM47.596 47.724c.408.24.996.408 1.632.408 1.356 0 2.16-.72 2.16-1.752 0-.864-.528-1.368-1.524-1.74-.756-.3-1.092-.516-1.092-.996 0-.432.336-.792.96-.792.54 0 .96.204 1.188.348l.252-.768c-.312-.204-.828-.36-1.416-.36-1.236 0-2.004.768-2.004 1.704 0 .696.492 1.26 1.548 1.644.768.288 1.068.552 1.068 1.056 0 .492-.36.864-1.116.864-.528 0-1.08-.216-1.404-.408l-.252.792ZM57.754 42.192h-1.056v3.552c0 .204-.036.396-.096.54-.192.48-.684.972-1.392.972-.948 0-1.296-.756-1.296-1.86v-3.204h-1.056v3.396c0 2.028 1.092 2.544 2.004 2.544a2.17 2.17 0 0 0 1.92-1.08h.024l.06.948h.936a20.791 20.791 0 0 1-.048-1.596v-4.212ZM59.656 50.376H60.7V47.22h.024c.348.576 1.02.912 1.788.912 1.368 0 2.652-1.032 2.652-3.12 0-1.752-1.056-2.94-2.472-2.94-.948 0-1.644.408-2.064 1.116h-.024l-.06-.996h-.936c.024.552.048 1.152.048 1.896v6.288Zm1.044-5.748c0-.132.036-.288.072-.42.192-.792.876-1.296 1.596-1.296 1.116 0 1.728.996 1.728 2.148 0 1.332-.648 2.244-1.764 2.244a1.63 1.63 0 0 1-1.632-1.668v-1.008ZM71.302 45.288c.024-.12.036-.276.036-.492 0-1.068-.492-2.724-2.4-2.724-1.692 0-2.724 1.368-2.724 3.12s1.068 2.94 2.856 2.94c.924 0 1.572-.204 1.944-.372l-.192-.756c-.384.168-.852.3-1.608.3-1.068 0-1.968-.588-1.992-2.016h4.08Zm-4.068-.756c.084-.732.54-1.704 1.62-1.704 1.188 0 1.476 1.044 1.464 1.704h-3.084ZM72.796 48h1.056v-3.096c0-.168.012-.348.036-.492.144-.792.672-1.344 1.416-1.344.144 0 .252 0 .36.024v-.996c-.096-.012-.18-.024-.288-.024-.708 0-1.356.492-1.62 1.272h-.036l-.048-1.152h-.924c.036.54.048 1.128.048 1.812V48ZM77.974 48v-5.808h-1.056V48h1.056Zm-.528-8.1c-.396 0-.66.3-.66.66 0 .36.252.648.636.648.42 0 .672-.288.672-.648 0-.372-.264-.66-.648-.66ZM82.336 42.072c-1.596 0-2.88 1.14-2.88 3.072 0 1.836 1.224 2.988 2.784 2.988 1.392 0 2.892-.936 2.892-3.084 0-1.764-1.128-2.976-2.796-2.976Zm-.024.792c1.248 0 1.74 1.236 1.74 2.22 0 1.308-.756 2.256-1.764 2.256-1.032 0-1.752-.96-1.752-2.232 0-1.092.54-2.244 1.776-2.244ZM86.614 48h1.056v-3.096c0-.168.012-.348.036-.492.144-.792.672-1.344 1.416-1.344.144 0 .252 0 .36.024v-.996c-.096-.012-.18-.024-.288-.024-.708 0-1.356.492-1.62 1.272h-.036l-.048-1.152h-.924c.036.54.048 1.128.048 1.812V48ZM93.382 50.376h1.044V47.22h.024c.348.576 1.02.912 1.788.912 1.368 0 2.652-1.032 2.652-3.12 0-1.752-1.056-2.94-2.472-2.94-.948 0-1.644.408-2.064 1.116h-.024l-.06-.996h-.936c.024.552.048 1.152.048 1.896v6.288Zm1.044-5.748c0-.132.036-.288.072-.42.192-.792.876-1.296 1.596-1.296 1.116 0 1.728.996 1.728 2.148 0 1.332-.648 2.244-1.764 2.244a1.63 1.63 0 0 1-1.632-1.668v-1.008ZM102.82 42.072c-1.596 0-2.88 1.14-2.88 3.072 0 1.836 1.224 2.988 2.784 2.988 1.392 0 2.892-.936 2.892-3.084 0-1.764-1.128-2.976-2.796-2.976Zm-.024.792c1.248 0 1.74 1.236 1.74 2.22 0 1.308-.756 2.256-1.764 2.256-1.032 0-1.752-.96-1.752-2.232 0-1.092.54-2.244 1.776-2.244ZM107.098 48h1.056v-8.52h-1.056zM111.136 48v-5.808h-1.056V48h1.056Zm-.528-8.1c-.396 0-.66.3-.66.66 0 .36.252.648.636.648.42 0 .672-.288.672-.648 0-.372-.264-.66-.648-.66ZM113.278 41.112v1.08h-.9v.804h.9v3.168c0 .684.12 1.2.408 1.524.252.276.648.444 1.14.444.408 0 .732-.072.936-.144l-.048-.804c-.156.048-.324.072-.612.072-.588 0-.792-.408-.792-1.128v-3.132h1.512v-.804h-1.512V40.8l-1.032.312ZM121.756 45.288c.024-.12.036-.276.036-.492 0-1.068-.492-2.724-2.4-2.724-1.692 0-2.724 1.368-2.724 3.12s1.068 2.94 2.856 2.94c.924 0 1.572-.204 1.944-.372l-.192-.756c-.384.168-.852.3-1.608.3-1.068 0-1.968-.588-1.992-2.016h4.08Zm-4.068-.756c.084-.732.54-1.704 1.62-1.704 1.188 0 1.476 1.044 1.464 1.704h-3.084Zm2.172-4.848-1.056 1.716h.744l1.464-1.716h-1.152ZM127.21 47.004c-.3.132-.696.276-1.296.276-1.152 0-2.016-.828-2.016-2.172 0-1.2.72-2.196 2.052-2.196.576 0 .972.144 1.224.276l.24-.804c-.288-.156-.84-.312-1.464-.312-1.896 0-3.12 1.308-3.12 3.096 0 1.776 1.14 2.964 2.892 2.964.78 0 1.392-.204 1.668-.336l-.18-.792ZM128.776 48h1.056v-3.492c0-.18.024-.36.072-.492.192-.588.732-1.08 1.416-1.08.996 0 1.344.78 1.344 1.716V48h1.056v-3.456c0-1.992-1.248-2.472-2.052-2.472-.96 0-1.632.54-1.92 1.08h-.024l-.06-.96h-.936c.036.48.048.96.048 1.572V48ZM136.642 48v-5.808h-1.056V48h1.056Zm-.528-8.1c-.396 0-.66.3-.66.66 0 .36.252.648.636.648.42 0 .672-.288.672-.648 0-.372-.264-.66-.648-.66ZM142.504 47.004c-.3.132-.696.276-1.296.276-1.152 0-2.016-.828-2.016-2.172 0-1.2.72-2.196 2.052-2.196.576 0 .972.144 1.224.276l.24-.804c-.288-.156-.84-.312-1.464-.312-1.896 0-3.12 1.308-3.12 3.096 0 1.776 1.14 2.964 2.892 2.964.78 0 1.392-.204 1.668-.336l-.18-.792ZM146.458 42.072c-1.596 0-2.88 1.14-2.88 3.072 0 1.836 1.224 2.988 2.784 2.988 1.392 0 2.892-.936 2.892-3.084 0-1.764-1.128-2.976-2.796-2.976Zm-.024.792c1.248 0 1.74 1.236 1.74 2.22 0 1.308-.756 2.256-1.764 2.256-1.032 0-1.752-.96-1.752-2.232 0-1.092.54-2.244 1.776-2.244Z"/></g></g></svg>