<svg width="141" height="156" viewBox="0 0 141 156" xmlns="http://www.w3.org/2000/svg">
  <g fill="#FFF" fill-rule="evenodd">
    <path d="M141 113v27H0v-27h141Zm-116 3h-5.7463471L16 136h5.7326794L25 116Zm7.1743929 0c-2.1324503 0-3.8156733.543503-5.0500368 1.629474-1.2347314 1.08666-1.8517292 2.536231-1.8517292 4.349399 0 .815082.1869022 1.563647.5610744 2.24742.3738042.683083 1.0378955 1.458186 1.9919058 2.325653.4113318.367735.7505518.694457 1.0169242.979132.2667402.284676.4701986.53661.6103752.755459.2803532.438386.4208978.871603.4208978 1.301028 0 .516965-.1732892.919509-.5191317 1.208665-.3462105.289155-.79507.433906-1.3465784.433906-.3274467 0-.6571008-.034809-.9893304-.105461-.3318617-.069963-.6754967-.170599-1.0309051-.302253-.7108168-.271234-1.379323-.65689-2.0058867-1.155933L23 134.738605c.6077999.403233 1.3557763.709621 2.2442973.919853.4771891.122693.9422369.210233 1.3958793.262619.4536424.05273.937454.078923 1.4518028.078923 2.3473142 0 4.1968359-.591408 5.5481972-1.773879 1.3513613-1.182472 2.0272259-2.799194 2.0272259-4.848788 0-.919853-.1685063-1.732178-.5051508-2.437663-.3366446-.70514-1.0382635-1.544347-2.1041207-2.516586l-.3086829-.289156c-1.0566593-.980855-1.5853569-1.742861-1.5853569-2.286364 0-.402543.1379691-.720304.4139073-.952594.2759382-.231945.6523179-.348435 1.129507-.348435.5331126 0 1.0963944.109597 1.6902134.32879.593819.218849 1.1898455.521101 1.7884474.906757L37 117.103893c-.8138337-.385312-1.6085357-.665851-2.3848418-.841275C33.8388521 116.087884 33.0253863 116 32.1743929 116Zm13.6836123 0c-1.320278 0-2.5001755.274912-3.5393416.824389-1.0391662.549823-1.9425142 1.374558-2.7093423 2.473859-.4197375.59795-.7829719 1.238141-1.090756 1.919535-.3077841.681393-.5818769 1.458001-.8229803 2.32844C37.2316277 125.234818 37 126.971886 37 128.757081c0 2.190291.5618727 3.945017 1.685969 5.264178C39.8100653 135.340766 41.2952902 136 43.1419948 136c1.3290517 0 2.5173721-.279413 3.5660139-.837546 1.0479399-.558479 1.9421633-1.378713 2.68267-2.460356.8208746-1.169933 1.4606584-2.588117 1.9204043-4.254553.459395-1.667128.688917-3.401773.688917-5.204972 0-2.224569-.5573103-3.988297-1.6726328-5.290146C49.2123956 116.650924 47.7226083 116 45.8580052 116Zm20.2665919 0c-2.1308814 0-3.7664356.644673-4.9070102 1.93437-.6014192.671446-1.0609188 1.474997-1.3791944 2.411005-.3182756.935656-.4775874 2.016804-.4775874 3.243796h4.5358626c0-1.083614.1568768-1.945643.4706305-2.585736.3141015-.640446.7273381-.960668 1.2400575-.960668.3801915 0 .6654222.103218.8556919.308949.1899218.206437.2848827.497068.2848827.873303 0 1.128353-.7558611 2.840787-2.2679312 5.137653C62.9682768 128.659539 60.4749438 131.871981 57 136h12.3077012l.7294252-4.64728h-3.9125293c2.1044454-2.46279 3.6095587-4.513413 4.5160355-6.151867C71.5467616 123.562045 72 122.120515 72 120.875557c0-1.539816-.5172414-2.737569-1.5517241-3.592905C69.4137931 116.427668 67.9726828 116 66.1245971 116ZM83 116h-6.7479215l-.685009 4.658415 1.7385789-.001078L75 136h4.9802006L83 116Zm10.8241883 0c-.8966611 0-1.7566519.221846-2.5813827.665192-.8247308.443692-1.5503811 1.078476-2.1780086 1.904005-.9139386 1.203221-1.6533402 2.782405-2.218205 4.736515C86.2820798 125.260168 86 127.251944 86 129.280694c0 2.152113.4499173 3.810083 1.3508096 4.973565C88.251702 135.418432 89.5263501 136 91.1758117 136c.8871409 0 1.7478369-.225993 2.5810301-.678323.8335458-.452331 1.5549649-1.082622 2.1646098-1.890529.9414413-1.221189 1.6893054-2.78897 2.2450026-4.704032.2870162-.974809.4975182-1.949619.6322113-2.924773C98.933006 124.827534 99 123.826117 99 122.798438c0-2.204637-.4460387-3.88887-1.3377634-5.052697C96.7705118 116.581914 95.4912799 116 93.8241883 116Zm13.9999997 0c-.896308 0-1.756652.221846-2.581382.665192-.824379.443692-1.550029 1.078476-2.177656 1.904005-.914292 1.203221-1.653341 2.782405-2.218205 4.736515-.564513 1.954456-.846945 3.946232-.846945 5.974982 0 2.152113.45027 3.810083 1.351162 4.973565.900893 1.164173 2.175541 1.745741 3.825002 1.745741.886789 0 1.747485-.225993 2.58103-.678323.833194-.452331 1.554965-1.082622 2.16461-1.890529.941089-1.221189 1.689306-2.78897 2.245003-4.704032.286663-.974809.497165-1.949619.631859-2.924773.134693-.974809.201334-1.976226.201334-3.003905 0-2.204637-.445686-3.88887-1.337411-5.052697C110.770864 116.581914 109.49128 116 107.824188 116ZM124 116h-6.747921l-.685009 4.658415 1.738578-.001078L116 136h4.980201L124 116Zm-30.5118392 4.45316c.259866 0 .4545011.12751.584963.382183.1297567.255019.194635.615087.194635 1.080203 0 .808252-.1163579 1.908498-.3494263 3.300391-.2330685 1.392239-.5200846 2.672864-.8603434 3.840838-.2602186.869415-.5155008 1.497633-.7665518 1.884308-.2506985.38633-.5200847.579495-.8063957.579495-.251051 0-.4372236-.118525-.5578128-.355576-.1212943-.237396-.1819414-.597463-.1819414-1.080548 0-.869761.1078955-1.961022.3229813-3.274129.2147333-1.312761.5109171-2.615156.887141-3.906493.251051-.878054.49505-1.506272.7327023-1.883963.2376522-.377691.503865-.566709.8000488-.566709Zm14.0000002 0c.260218 0 .454853.12751.585315.382183.129404.255019.194635.615087.194635 1.080203 0 .808252-.11671 1.908498-.349779 3.300391-.233068 1.392239-.520084 2.672864-.85999 3.840838-.260572.869415-.515854 1.497633-.766552 1.884308-.251051.38633-.520085.579495-.806396.579495-.251403 0-.437576-.118525-.558165-.355576-.120942-.237396-.181589-.597463-.181589-1.080548 0-.869761.107543-1.961022.322629-3.274129.215086-1.312761.510917-2.615156.887493-3.906493.250699-.878054.49505-1.506272.732703-1.883963.237299-.377691.503865-.566709.799696-.566709Zm-62.1786923.286124c.3927142 0 .6825998.171387.8696567.514161.1874079.342774.2811118.870438.2811118 1.5823 0 1.089953-.0937039 2.241189-.2811118 3.454401-.0891415.588948-.1961816 1.155737-.3211202 1.700713-.1249386.544976-.2540886 1.00651-.3878009 1.384254-.2232049.668236-.4797502 1.149504-.7692848 1.444152-.2902365.294647-.6180249.441797-.9837159.441797-.4281603 0-.7405068-.165155-.9366884-.494772-.1961817-.329617-.294448-.854857-.294448-1.575375 0-1.072641.0982663-2.223877.294448-3.454747.1961816-1.230178.4369341-2.276505.7226083-3.137941.2140801-.650232.4593949-1.120421.7359444-1.410567.3032217-.299148.660139-.448376 1.0704008-.448376ZM52.5258711 80.0483933C55.0908373 64.0566869 47.1690256 54 30.6973265 54 15.2393139 54 2.8990589 63.416516.3977131 79.0434576-2.1951754 95.2187681 8.14881 104 23.8810975 104c10.8285614 0 22.2742416-5.0306123 26.7358054-16.0887443H34.4233667c-2.3504238 3.1052128-5.1299325 4.2927054-8.7372144 4.2927054-6.94347 0-9.9700382-3.6521854-8.883895-10.4197064h35.4412095l.2824043-1.7358614Zm-33.9065418-7.86007c1.7859686-4.8445648 6.2719203-7.4052484 11.1827154-7.4052484 4.5340205 0 8.2282505 2.9240521 8.3477156 7.4052484h-19.530431ZM75.0424008 28c-5.1076167 0-9.9683774 4.2470334-10.7842572 9.414375-.8082091 5.1733382 2.7269213 9.4221354 7.8383733 9.4221354s9.9798834-4.2487972 10.7884412-9.4221354C83.6928185 32.2470334 80.1580368 28 75.0424008 28Zm3.9863049 27.6138304h-16.614311L55 103h16.6139623l7.4147434-47.3861696ZM141 35.4923761C136.006779 33.2833938 130.858225 32 125.044307 32c-9.773343 0-20.310673 4.2269478-28.2414967 11.2141579-7.7240645 6.8046205-12.768711 15.9060068-14.2709745 25.3795948-1.6325887 10.2896228.4364137 19.30147 6.9988218 26.1973853C95.6858871 101.322225 104.325399 105 114.006457 105c5.624418 0 10.178055-1.382765 16.471359-3.220247l3.42826-21.6045565c-4.498337 4.5039923-10.855042 7.3523891-16.751735 7.3523891-11.251653 0-17.56116-7.9050736-15.825015-18.8467517 1.707966-10.7562796 10.525354-19.2129843 21.590678-19.2129843 6.179181 0 11.747242 2.6647539 14.655258 7.6290825L141 35.4923761ZM34.6381376 151.304756c.2581308 0 .4816844-.090307.6696337-.27056.1879493-.180253.3522766-.478988.4929819-.895846.1403629-.416857.2639507-.937748.3700787-1.563395.1064704-.624925.1595344-1.15593.1595344-1.593016 0-.420831-.0797672-.739434-.2393016-.95581-.1595344-.216376-.3950702-.324744-.706265-.324744-.2660048 0-.4977747.096448-.6953098.288621-.1975351.192173-.3587812.476821-.4844231.853582-.0760014.228658-.1451558.475015-.2078056.739434-.0626498.264781-.1225608.563516-.1793906.896207-.0989387.624925-.1482369 1.144371-.1482369 1.556894 0 .412884.0804519.727513.2420404.943889.1615885.216376.4036289.324744.7264635.324744M32 149.825527c0-.773029.0920917-1.5587.2766176-2.356292.1841835-.797591.4299897-1.473088.737761-2.02649.2581308-.460566.5980829-.816375 1.0198563-1.067068.4217733-.250331.8945566-.375677 1.4186922-.375677.8394385 0 1.4738103.269476 1.9031154.80879.429305.538952.6439575 1.341601.6439575 2.407947 0 .713064-.0722355 1.421433-.2167066 2.124744-.1441287.703673-.345772 1.323901-.6039028 1.861048-.2773023.585189-.6477234 1.030945-1.1109209 1.337628-.4635399.306682-.9914413.459843-1.5840466.459843-.8017802 0-1.4159534-.271644-1.8432043-.81457C32.2136255 151.642505 32 150.85575 32 149.825527"/>
    <path d="m37 153 .9873708-5.868448h1.6176809l-.1144279.807644c.2123995-.29114.441638-.516504.6877153-.676092.2292384-.139459.5032529-.22752.8216609-.263104l-.2483735 1.63901c-.441638 0-.8006123.159588-1.0765404.478404-.275928.319176-.4668963.790032-.5729047 1.41185l-.0447761.269214L38.6942212 153H37ZM43.2133108 151.353662c.1171381 0 .2212607-.046629.3130716-.139545.0918109-.092915.1727171-.238289.2430703-.435777.0897002-.25029.1656817-.552351.228296-.905156.0622626-.353491.0935697-.630523.0935697-.831783 0-.212575-.0351766-.375091-.105178-.486865-.0703531-.111773-.1797523-.168002-.3278458-.168002-.2226678 0-.4157872.229718-.5797101.68881-.1639229.459435-.2458843 1.019672-.2458843 1.680367 0 .20126.0291965.353148.0875897.455663.0626143.094973.1604052.142288.2930209.142288ZM46 147.062401l-.9110736 5.598251c-.1403546.89007-.3865907 1.502422-.7390601 1.837398-.3524694.33429-.8751934.50195-1.5681722.50195-.5881525 0-1.032081-.126173-1.3317856-.379548C41.150204 154.36742 41 153.9937 41 153.499293V153.282604h1.4112846v.079544c0 .163888.0358802.284576.1079922.362405.0724637.078173.184677.117259.3366399.117259.1758829 0 .3222175-.10183.4393556-.30549.1167862-.20366.2107077-.529722.2810609-.978528l.0700014-.479321c-.2184466.247203-.4280991.429949-.6293091.547893-.2008583.117945-.4108626.176917-.6293092.176917-.3981989 0-.6996623-.164574-.90439-.493379-.2050795-.328461-.3074434-.813954-.3074434-1.456478 0-1.128701.2019136-2.053057.6060926-2.773411.4038272-.72001.925496-1.080015 1.5660616-1.080015.1910089 0 .3725201.050744.5441818.152574.1716618.10183.3338258.258175.4861405.469035l.0935697-.559208H46ZM48.1117107 151.501241c.1214087 0 .2293277-.04821.3244859-.144275.0951582-.096066.1790141-.246367.2519323-.45055.0929707-.258773.1717223-.571074.2366195-.935838.0645326-.365473.0973458-.651897.0973458-.859979 0-.21978-.0368237-.387806-.1093773-.503368-.0729182-.115561-.1859413-.173697-.3397987-.173697-.2307861 0-.4309465.237505-.6008459.712159-.1698993.475009-.254849 1.054236-.254849 1.737327 0 .208082.030261.365119.0907831.47111.0648972.098192.1662535.147111.3037043.147111ZM51 147.064516l-.9464781 5.788019h-1.589981l.0969812-.601915c-.242453.267281-.4659472.459057-.6701181.574974-.2045355.115916-.4159983.174406-.6343882.174406-.420738 0-.7350154-.165899-.9435614-.49805C46.104273 152.169798 46 151.663949 46 150.984048c0-1.166962.2092752-2.122651.6281902-2.867423C47.0467406 147.372208 47.5877935 147 48.251349 147c.1979729 0 .3861018.052464.5643867.157745.1775558.105282.3456322.266927.5035001.484935l.0969812-.578164H51ZM54.6898826 153l.5899406-3.726105.0192056-.120655.0061604-.102846c0-.137008-.0293521-.239855-.0873315-.308541-.0583418-.068322-.1478476-.102846-.2685172-.102846-.212712 0-.3917235.109024-.5363096.326711-.1445862.217686-.2529352.54258-.3254095.973955l-.4848529 3.059964L52 153l.9349181-5.933495h1.5440644l-.1087114.804603c.3177996-.324894.597188-.550575.8385273-.676317.1206696-.064688.2431512-.113386.3678069-.146093.1246558-.032708.2572837-.048698.3978838-.048698.3257718 0 .5779823.098849.7569937.296911.1786491.197698.2685172.477892.2685172.841308 0 .121018-.0134077.298728-.0391361.532768-.0264531.23404-.0434846.37759-.0514567.429922-.028265.141368-.0481954.250393-.0605161.327074L56.2821423 153h-1.5922597ZM58.0317064 145.21092c0-.328323.111507-.612407.3348771-.851885.2233702-.239113.4912719-.359035.8033488-.359035.2529391 0 .4545779.077145.6049163.231435.1499822.153924.2251514.361228.2251514.620816 0 .340388-.114357.630687-.3437834.8698-.2290702.239478-.5080157.359034-.836124.359034-.2290702 0-.4189526-.078973-.5689348-.237284-.0673317-.07678-.1207695-.168915-.1599572-.276771-.0399003-.107491-.0594942-.226317-.0594942-.35611ZM58.5653723 153H57l.9191307-5.96941h1.5710724L58.5653723 153ZM59 153l2.6327987-4.599498h-1.683711L60.2426427 147H64l-2.5746763 4.596558 1.7870807.002572L62.973661 153zM66.1117107 151.501241c.1214087 0 .2293277-.04821.3244859-.144275.0951582-.096066.1790141-.246367.2519323-.45055.0929707-.258773.1717223-.571074.2366195-.935838.0645326-.365473.0973458-.651897.0973458-.859979 0-.21978-.0368237-.387806-.1093773-.503368-.0729182-.115561-.1859413-.173697-.3397987-.173697-.2307861 0-.4309465.237505-.6008459.712159-.1698993.475009-.254849 1.054236-.254849 1.737327 0 .208082.030261.365119.0907831.47111.0648972.098192.1662535.147111.3037043.147111ZM69 147.064516l-.9464781 5.788019h-1.589981l.0969812-.601915c-.242453.267281-.4659472.459057-.6701181.574974-.2045355.115916-.4159983.174406-.6343882.174406-.420738 0-.7350154-.165899-.9435614-.49805C64.104273 152.169798 64 151.663949 64 150.984048c0-1.166962.2092752-2.122651.6281902-2.867423C65.0467406 147.372208 65.5877935 147 66.251349 147c.1979729 0 .3861018.052464.5643867.157745.1775558.105282.3456322.266927.5035001.484935l.0969812-.578164H69ZM70.4678274 153.184314c-.2982589-.094188-.5503406-.27444-.7562453-.540753-.3020439-.405935-.4534443-.965157-.4534443-1.678405 0-1.196749.2490537-2.156734.7464042-2.880325C70.502271 147.36161 71.156321 147 71.9670704 147c.1173354 0 .2055261.002216.2645723.00591.0586677.004432.1426949.018838.2520818.043585.0881907.012189.1718395.028441.2517032.048757.0798637.020684.1680545.049125.2645723.086432l-.1953066 1.358532-.2581378-.043216-.2017411-.018099c-.4367903 0-.7914458.199828-1.0643452.599114-.2732778.399655-.4095382.912706-.4095382 1.540261 0 .331691.0722937.586555.2172597.764959.1449659.178404.3516275.267422.6203633.267422h.1828161c.0507191-.012189.0893262-.021424.1165783-.027703.0272521-.00591.0673732-.01736.1196064-.033982.0526116-.015882.1040878-.036567.1544284-.061315l-.1449659 1.487811c-.1048448.041-.2036336.074982-.2959879.101207-.0923543.026594-.188115.050234-.2865253.070918-.0987888.020316-.1805451.034721-.2456473.043216-.0654807.007757-.1396669.01219-.2236941.01219l-.1135504.325781c.4579864 0 .8043149.089018 1.0393641.267053.2354277.178774.3527631.4377.3527631.777887 0 .434376-.1404239.773824-.4216503 1.017607-.2816048.243782-.678274.365673-1.1907645.365673-.1135504 0-.2289932-.006279-.3467071-.018468-.1177138-.012189-.2581378-.034721-.4220288-.067595-.3274034-.061314-.6551854-.14553-.9825889-.252277l.2834974-.756095c.2350492.094189.4700984.168062.7055261.22162.2350492.05282.4682059.079784.6994701.079784.1718395 0 .3115064-.044324.4186222-.132234.1071158-.088278.1604845-.202044.1604845-.341295 0-.168062-.0711582-.288845-.2138531-.362349-.0715368-.033243-.1915216-.05836-.3591976-.077198-.1680545-.018468-.3716881-.027333-.6112794-.027333l.3845572-1.082246Z"/>
    <path d="M74.2421257 151.551481c.3728168 0 .6665174-.216666.881848-.65037.2153307-.433704.3231826-1.02037.3231826-1.76 0-.324444-.0570981-.568148-.170921-.73-.113823-.162592-.2888491-.244074-.5247052-.244074-.3728169 0-.665771.218148-.8788625.653704-.2134647.435555-.3198239 1.037778-.3198239 1.805926 0 .324814.0544858.56037.1645768.705926.1097179.145926.2843708.218888.5247052.218888ZM76.9007315 144c-.0914316.493333-.2384685.865185-.4414839 1.115926-.2026421.250741-.4593969.376296-.769891.376296l-.2358561-.018518c-.0787431-.012223-.1515151-.035185-.2175698-.068148l-.3354978-.12926-.1798776-.043333-.149276-.018148c-.1242723 0-.2298851.044074-.3168383.132222-.0869533.088519-.1552471.224815-.2048814.41h-.6086729c.0910584-.488889.2403344-.860741.4470817-1.115556.0955366-.119259.2071204-.211851.3354978-.277407.1283774-.065926.26907-.098889.4224511-.098889h.096283c.0268697 0 .0753844.008519.1459173.024815.0951635.012593.1798776.034815.2545156.067778l.3168384.111111.1615912.055185.1179281.018519c.1324825 0 .2444395-.042963.3354978-.12926.0910584-.086296.1612181-.224074.2112256-.413333h.6150172ZM77 149.07963c0 1.212222-.2466786 2.168889-.7392894 2.869259C75.7677265 152.64963 75.1034483 153 74.2667562 153c-.7575757 0-1.3248246-.20963-1.7017465-.628889C72.188461 151.952222 72 151.321481 72 150.478889c0-1.126296.253396-2.034445.7609345-2.724815.5071652-.69 1.1748022-1.035555 2.0029109-1.035555.7079414 0 1.2576503.205925 1.6491267.616666.3911031.411111.5870279.992222.5870279 1.744445ZM80.8035334 149.401276l.0100517-.112017v-.176888c0-.248138-.0499543-.444523-.1495583-.590216-.099604-.145693-.2391106-.218362-.418215-.218362-.2025587 0-.3758758.09642-.5193421.289259-.1440755.19284-.2409382.461893-.2918063.808224h1.36887Zm1.0191897 1.545551c-.1422479.621411-.4026805 1.119107-.780993 1.492733-.3783125.373627-.8144989.56044-1.30795.56044-.5610722 0-.9902528-.200638-1.2875419-.601914C78.1489491 151.997164 78 151.405175 78 150.622474c0-1.132931.2046908-2.019851.6134633-2.661113.4090771-.640553.9734998-.961361 1.6932683-.961361.5373135 0 .9540055.179015 1.2497716.536689.2954615.358029.4434968.863524.4434968 1.516484v.06487c0 .078696-.0018276.162-.0051782.250621-.0033506.088621-.009138.181141-.0176668.277206-.0085287.096774-.0185805.201702-.0304599.315846-.0118794.113789-.0298508.25381-.0533049.419h-2.6104173l-.0155346.16519v.212336c0 .283233.0542187.504431.1623515.663594.1081328.159164.258605.238923.4511118.238923.1522997 0 .2814499-.056718.3877551-.170862.1066098-.114498.1918977-.294931.2561682-.54307h1.2978982ZM83 152.521829l.2483613-1.451173c.2181354.176878.4464675.3137.6849963.40976.2381646.096768.4603059.144975.6667881.144975.1409322 0 .2534595-.035446.3361252-.106339.0826657-.070538.1241807-.169079.1241807-.294913 0-.216223-.2163147-.497312-.6482156-.843623l-.03059-.023394c-.311362-.244225-.5324107-.474981-.6635105-.69333-.131464-.21835-.1970139-.45903-.1970139-.723106 0-.561824.1999272-1.026171.5997815-1.391977.4002185-.365806.9176985-.548709 1.5517116-.548709.1897305 0 .3940277.022686.6125273.067702.2177713.045372.4563001.1191.714858.221186l-.2243263 1.474921c-.2177713-.118036-.4180626-.206297-.5997815-.265493-.1817189-.058841-.3495994-.088261-.5032775-.088261-.1737072 0-.3150036.035446-.4242534.105984-.1012382.074792-.1514931.169434-.1514931.283217 0 .14143.1959213.356235.587764.642996l.2184996.16518c.335397.255922.5564458.483133.6635106.681633.1070648.198854.1605972.443433.1605972.734093 0 .590182-.193008 1.067289-.5786598 1.430969-.3860161.363679-.8922069.545873-1.5182084.545873-.282957 0-.5557174-.0397-.8186453-.118036-.2621995-.078691-.5327749-.198854-.8117261-.360135M91.941888 151.548354c.0910465 0 .1778201-.049441.2596634-.148667.082172-.098882.1561267-.241712.2215356-.42849.0841441-.266432.1551407-.573379.2133185-.91981.0585064-.346775.0877596-.621104.0877596-.822989 0-.213215-.0328688-.376302-.0986063-.488574-.0657376-.112273-.1679595-.168581-.3063371-.168581-.2044439 0-.3839075.234502-.5387195.702819-.1551406.468661-.2323823 1.034487-.2323823 1.697135 0 .198108.0325401.343685.0982777.437417.0657376.093045.1643439.13974.2954904.13974ZM95 144l-1.3459769 8.85717h-1.3785169l.087431-.559989c-.2550618.259222-.474954.44085-.6593479.545569-.1840652.104719-.3743755.15725-.5715882.15725-.3753616 0-.6583619-.159997-.8476861-.480334-.1896529-.319994-.284315-.803762-.284315-1.45096 0-1.143325.1794636-2.078243.5383907-2.805783.3592559-.72754.8144886-1.091481 1.3650408-1.091481.2225217 0 .4240074.052187.6047857.156907.180121.105062.3418354.265746.4838286.482737L93.5554168 144H95ZM98.8034422 149.401276l.0100526-.112017v-.176888c0-.248138-.0499581-.444523-.1495697-.590216-.0996116-.145693-.2391288-.218362-.4182469-.218362-.2025741 0-.3759044.09642-.5193816.289259-.1440866.19284-.2409566.461893-.2915239.808224h1.3686695Zm1.0192674 1.545551c-.1422588.621411-.4027111 1.119107-.7810525 1.492733-.3783413.373627-.8145609.56044-1.3080496.56044-.5611149 0-.9903282-.200638-1.2876399-.601914C96.1483512 151.997164 96 151.405175 96 150.622474c0-1.132931.2044018-2.019851.61351-2.661113.408499-.640553.9732694-.961361 1.6930927-.961361.5373543 0 .9540781.179015 1.2498667.536689.295484.358029.4435306.863524.4435306 1.516484v.06487c0 .078696-.0018277.162-.0051786.250621-.0033508.088621-.0091387.181141-.0176681.277206-.0085294.096774-.018582.201702-.0304623.315846-.0118802.113789-.029853.25381-.0533089.419h-2.6109207l-.0152312.16519v.212336c0 .283233.0542229.504431.1623639.663594.108141.159164.2586246.238923.4511461.238923.1523114 0 .2814714-.056718.3877847-.170862.1066179-.114498.1919122-.294931.2561876-.54307h1.2979971ZM103 153l1.343185-9H108l-.238245 1.65192h-1.988751l-.284707 1.867854h1.750158l-.250123 1.732294h-1.750157l-.308111 2.015638h1.988751L106.657165 153zM109.941888 151.548354c.091047 0 .17782-.049441.259663-.148667.082172-.098882.156127-.241712.221536-.42849.084144-.266432.155141-.573379.213318-.91981.058507-.346775.08776-.621104.08776-.822989 0-.213215-.032869-.376302-.098606-.488574-.065738-.112273-.16796-.168581-.306337-.168581-.204444 0-.383908.234502-.53872.702819-.15514.468661-.232382 1.034487-.232382 1.697135 0 .198108.03254.343685.098278.437417.065737.093045.164344.13974.29549.13974ZM113 144l-1.345977 8.85717h-1.378517l.087431-.559989c-.255062.259222-.474954.44085-.659348.545569-.184065.104719-.374375.15725-.571588.15725-.375362 0-.658362-.159997-.847686-.480334-.189653-.319994-.284315-.803762-.284315-1.45096 0-1.143325.179464-2.078243.538391-2.805783.359256-.72754.814488-1.091481 1.365041-1.091481.222521 0 .424007.052187.604785.156907.180121.105062.341836.265746.483829.482737L111.555417 144H113ZM113.642825 147h1.619133l-.593063 3.675708-.006313.047994-.043078.360138c0 .084441.008913.154447.027481.21038.018568.056294.050505.107897.095811.156252.086155.083719.209818.126301.370618.126301.337195 0 .56781-.372767.691102-1.11758l.558526-3.458832L118 147l-.673648 4.023937c-.111408.68491-.354278 1.185421-.729353 1.501534-.375074.316112-.912804.474529-1.61319.474529-.650996 0-1.144534-.139292-1.480244-.417514-.33571-.278222-.503565-.691405-.503565-1.240272 0-.152282.014483-.348228.043449-.58856.012255-.120166.029709-.267397.051991-.441331.023024-.174294.057189-.389366.102495-.645576L113.642825 147ZM120.843415 148.480948l-.207263-.041118-.16144-.017723c-.350192 0-.634837.191764-.853632.574939-.218794.383529-.328039.876233-.328039 1.478112 0 .318308.05796.563242.173882.734093.116225.171561.282217.256986.497673.256986h.146268c.040663-.011697.071616-.020913.093769-.026584.021545-.006026.053409-.01666.095893-.032611.041877-.015596.083148-.035446.123508-.058841l-.116225 1.427424c-.084058.0397-.163261.071956-.237305.097477-.074044.025522-.173276.05317-.297694.08259-.124722.029421-.263099.044308-.414526.044308-.41058 0-.739834-.194955-.987153-.583801-.247623-.389555-.371131-.926567-.371131-1.610681 0-1.148816.199373-2.069711.598422-2.764105.399049-.694039.923427-1.041413 1.573134-1.041413.094376 0 .164778.002127.212118.006026.04734.004253.114404.018078.2018.041472.07101.011697.138074.027294.202104.047144s.134736.047143.212422.08259l-.156585 1.303716ZM123.111346 151.501241c.121409 0 .229692-.04821.324851-.144275.094793-.096066.179014-.246367.251567-.45055.093336-.258773.172087-.571074.23662-.935838.064897-.365473.097346-.651897.097346-.859979 0-.21978-.036459-.387806-.109378-.503368-.072918-.115561-.185941-.173697-.339434-.173697-.230786 0-.430946.237505-.60121.712159-.1699.475009-.254485 1.054236-.254485 1.737327 0 .208082.030261.365119.090783.47111.064898.098192.165889.147111.30334.147111ZM126 147.064516l-.946843 5.788019h-1.589616l.096981-.601915c-.242817.267281-.466312.459057-.670483.574974-.204535.115916-.415633.174406-.634388.174406-.420373 0-.735015-.165899-.943561-.49805-.208182-.332152-.31209-.838001-.31209-1.517902 0-1.166962.208911-2.122651.627826-2.867423.41855-.744417.959603-1.116625 1.623158-1.116625.198338 0 .386102.052464.564387.157745.177921.105282.345997.266927.503865.484935l.096981-.578164H126ZM127.467827 153.184314c-.298258-.094188-.55034-.27444-.755866-.540753-.302423-.405935-.453445-.965157-.453445-1.678405 0-1.196749.248676-2.156734.746026-2.880325C127.50265 147.36161 128.156321 147 128.96707 147c.117336 0 .205527.002216.264573.00591.058667.004432.142695.018838.251703.043585.088569.012189.172218.028441.252082.048757.079863.020684.168054.049125.264572.086432l-.194928 1.358532-.258516-.043216-.201363-.018099c-.43679 0-.791824.199828-1.065102.599114-.272521.399655-.40916.912706-.40916 1.540261 0 .331691.072672.586555.21726.764959.144587.178404.351627.267422.620363.267422h.182816c.050719-.012189.089326-.021424.116579-.027703.027252-.00591.066994-.01736.119984-.033982.051855-.015882.10371-.036567.15405-.061315l-.144966 1.487811c-.104844.041-.203633.074982-.295987.101207-.092355.026594-.188116.050234-.286526.070918-.098789.020316-.180545.034721-.245647.043216-.065102.007757-.139667.01219-.223694.01219l-.113551.325781c.457608 0 .804315.089018 1.039365.267053.235049.178774.353141.4377.353141.777887 0 .434376-.140802.773824-.422029 1.017607-.281983.243782-.678274.365673-1.190764.365673-.113551 0-.228993-.006279-.346707-.018468-.117714-.012189-.258138-.034721-.421651-.067595-.327782-.061314-.655564-.14553-.982967-.252277l.283497-.756095c.23505.094189.470099.168062.705526.22162.23505.05282.468206.079784.699092.079784.172218 0 .311885-.044324.419001-.132234.107116-.088278.160484-.202044.160484-.341295 0-.168062-.071158-.288845-.213853-.362349-.071915-.033243-.191143-.05836-.359197-.077198-.168055-.018468-.371689-.027333-.61128-.027333l.384557-1.082246ZM132.101234 151.441514c.120827 0 .228592-.050131.323294-.150025.09434-.099893.178157-.256184.250363-.468504.092888-.269086.171263-.593832.235486-.973132.064587-.380038.09688-.677876.09688-.89425 0-.228539-.036285-.40326-.108854-.523427-.072568-.120167-.18505-.18062-.337808-.18062-.229681 0-.428882.24697-.598331.740539-.169085.493939-.253265 1.096249-.253265 1.806562 0 .216374.030116.379669.090348.489883.064586.102105.165094.152974.301887.152974ZM135 144c-.088534.49099-.231495.860706-.42852 1.110256-.197387.249549-.447024.374508-.748911.374508l-.229681-.01843c-.07656-.012165-.146952-.035018-.211538-.067825l-.325835-.128645-.175254-.042759-.144775-.01843c-.120827 0-.223512.043864-.308055.131594-.084543.088098-.150943.224115-.199202.40842h-.591799c.088534-.486934.233309-.85702.434688-1.110624.092525-.118324.201378-.210477.325834-.276089.124819-.065613.261974-.098419.41074-.098419h.093977c.025762 0 .073295.008478.141872.024697.092526.012532.174892.034649.24746.067455l.308056.110584.157111.055291.114659.018062c.128447 0 .237301-.042759.325835-.128645.088897-.085886.157112-.22301.205733-.411001H135Zm-.023948 2.827982-.942307 6.018676h-1.582003l.096516-.625901c-.241654.277932-.464078.477351-.667271.597887-.203556.120535-.413643.181356-.63135.181356-.41836 0-.731495-.17251-.939042-.517898-.207184-.345388-.310595-.871396-.310595-1.578391 0-1.213467.20791-2.207241.624819-2.981693.416545-.774082.955007-1.161124 1.615384-1.161124.197388 0 .384253.054555.561684.164032.177068.109478.344339.277564.501451.50426l.096517-.601204h1.576197ZM138.242126 151.616392c.372817 0 .666517-.206958.881848-.621227.21533-.414269.323182-.974646.323182-1.681132 0-.309906-.057098-.542689-.170921-.697288-.113823-.155306-.288849-.233137-.525078-.233137-.372444 0-.665398.208373-.878489.624411-.213465.416038-.320197.991273-.320197 1.725 0 .310259.055232.535259.16495.674292.109717.139387.28437.209081.524705.209081M141 149.255307c0 1.157901-.246679 2.071698-.739289 2.740684C139.7681 152.66533 139.103448 153 138.266756 153c-.757576 0-1.324824-.200236-1.701746-.600708-.376922-.400117-.56501-1.002594-.56501-1.807429 0-1.075825.253396-1.943278.760561-2.602712.507539-.65908 1.175176-.989151 2.003284-.989151.707942 0 1.258024.196698 1.648754.589033.391476.392689.587401.947759.587401 1.666274M6 0v1.7307957H2.8588303v4.7151985h2.8067022v1.7304521H2.8588303v5.092758H6V15H1V0zM9.7000049 4.4565068l.3001431 5.0329806V15H8V0h1.9200178l3.5202052 11.3992717.0397198-.0395081-.4797454-6.0083138V0H15v15h-1.8599201L9.6198747 3.4420091l-.0400652.039508zM22 0v1.7307957h-2.3895758V15H17.495487V1.7307957H15V0zM23 15h2V0h-2zM29.1979315 1.6912876V13.309056c3.62653.0992854 3.4724357-3.0039851 3.4724357-5.5503641 0-2.3079566.2417687-6.2666621-3.4724357-6.0674042ZM29.4617136 0C32.0551286 0 35 .1594063 35 7.7586918 35 14.6818744 32.450612 15 28.5166524 15H27V0h2.4617136ZM39.7604997 8.355435l-.750437-5.4510788h-.0395685l-1.1853494 7.6195548h2.3703577l-.3950028-2.168476ZM39.8000682 0 43 15h-1.9951392l-.5529357-2.9246255h-2.9628619L36.9361276 15H35l3.2398414-15h1.5602268ZM46.1979315 1.6912876V13.309056c3.62653.0992854 3.4724357-3.0039851 3.4724357-5.5503641 0-2.3079566.2417687-6.2666621-3.4724357-6.0674042ZM46.4617136 0C49.0551286 0 52 .1594063 52 7.7586918 52 14.6818744 49.450612 15 45.5166524 15H44V0h2.4617136ZM59 0v1.7307957h-3.1411697v4.7151985h2.8067022v1.7304521h-2.8067022v5.092758H59V15h-5V0zM71 2.335743c-.4501083-.2063365-.9231495-.3926819-1.440502-.3926819-3.1511466 0-3.1736909 4.217046-3.1736909 6.1601071 0 2.0672914.1799656 5.9537707 3.2634794 5.9537707.4951968 0 .9227608-.1031683 1.3507135-.3102187v1.8191879C70.4371703 15.8968318 69.8517963 16 69.1991782 16 64.6075296 16 64 11.5141455 64 8.2484605 64 5.12664 64.427564 0 69.0417569 0 69.8070965 0 70.3469932.1031682 71 .45444v1.881303ZM77 0v1.7307957h-3.1411697v4.7151985h2.8067022v1.7304521h-2.8067022v5.092758H77V15h-5V0zM83.1141126 4.2771747c0-1.4325959-.1841454-2.6260822-1.7396617-2.585887h-.3276445V6.644565c1.5350164.099629 2.0673062-.8557785 2.0673062-2.3673904ZM79 0h2.4560969c1.4943702 0 3.8274679.0793596 3.8274679 3.8398378 0 1.4123265-.4297905 3.5608768-2.1284525 3.8590766L86 15h-2.1284524l-2.7837415-7.3409372h-.0409997V15H79V0ZM93 0v1.7307957h-2.389941V15h-2.114572V1.7307957H86V0zM94 15h2V0h-2zM103 0v1.7307957h-3.1551109v4.7151985h2.8415749v1.7304521h-2.8415749V15H98V0zM105 15h2V0h-2zM115 2.335743c-.450083-.2063365-.92271-.3926819-1.440422-.3926819-3.150972 0-3.173515 4.217046-3.173515 6.1601071 0 2.0672914.179956 5.9537707 3.263298 5.9537707.495558 0 .92271-.1031683 1.350639-.3102187v1.8191879C114.437202 15.8968318 113.852249 16 113.199278 16 108.607885 16 108 11.5141455 108 8.2484605 108 5.12664 108.427929 0 113.041866 0c.765297 0 1.305163.1031682 1.958134.45444v1.881303Z"/>
    <path d="m119.760703 8.355435-.75081-5.4510788h-.03923l-1.185399 7.6195548h2.370458l-.395019-2.168476ZM119.799932 0 123 15h-1.995224l-.55296-2.9246255h-2.962647L116.935869 15H115l3.239638-15h1.560294ZM126.197931 1.6912876V13.309056c3.626531.0992854 3.472436-3.0039851 3.472436-5.5503641 0-2.3079566.241769-6.2666621-3.472436-6.0674042ZM126.461334 0C129.054749 0 132 .1594063 132 7.7586918 132 14.6818744 129.450612 15 125.516652 15H124V0h2.461334ZM137.760703 8.355435l-.75081-5.4510788h-.03923l-1.185399 7.6195548h2.370458l-.395019-2.168476ZM137.799932 0 141 15h-1.995224l-.55296-2.9246255h-2.962647L134.935869 15H133l3.239638-15h1.560294Z"/>
  </g>
</svg>
