<svg width="142" height="154" viewBox="0 0 142 154" xmlns="http://www.w3.org/2000/svg">
  <g fill="#FFF" fill-rule="evenodd">
    <path d="M131.696591 15.8146608 134.60513.2077926h2.615339L140 15.8146608h-2.498059l-.41048-2.7358193h-2.521515l-.363567 2.7358193h-2.509788Zm3.330746-5.1715066h1.665373c-.17592-1.085093-.328383-2.2279035-.457391-3.4630625s-.258016-2.4587744-.363567-3.7862817c-.129008 1.1543542-.258016 2.3087084-.398752 3.5554109-.140735 1.2467025-.293199 2.4703179-.445663 3.6939333Zm-11.376139 5.1715066V.2077926h2.14622c1.676849-.1148033 3.299542.6100014 4.315896 1.9277714 1.078396 1.7675603 1.577948 3.81898 1.430814 5.8756627.034391 1.3463831-.143646 2.6898678-.527759 3.9825219-.305516 1.0069026-.866546 1.9206264-1.630189 2.6550145-.424371.4085225-.93777.7164549-1.501182.9003963-.764504.2007315-1.554754.290181-2.345595.2655014h-1.888205Zm2.474604-2.8858854h.199375c.862232.0084252 1.65033-.478645 2.017212-1.2467025.534181-1.1327711.775896-2.3778511.703679-3.624672.07682-1.2956093-.164547-2.59037-.703679-3.7747381-.383712-.7788216-1.196901-1.26268-2.075852-1.235159h-.164191l.023456 9.8812716Zm-11.727979 2.8858854L117.329818.2077926h2.615339l2.767803 15.6068682h-2.486332l-.422207-2.7358193h-2.509787l-.387023 2.7358193h-2.509788Zm3.389386-5.1715066h1.665373c-.17592-1.085093-.328384-2.2279035-.457391-3.4630625-.129008-1.235159-.258016-2.4587744-.363568-3.7862817-.129007 1.1543542-.258015 2.3087084-.398751 3.5554109-.140736 1.2467025-.328383 2.4703179-.445663 3.6939333Zm-3.823321 4.9983535c-.230956.1191119-.474894.2120544-.727135.277045-.238243.0553469-.482351.0824741-.727134.0808048-1.605373.0268861-3.103246-.7916902-3.928873-2.1470987-1.071124-1.7006952-1.594441-3.6805623-1.501181-5.6794225-.08885-2.0522505.41977-4.0867767 1.465997-5.8641192.744125-1.399445 2.207007-2.2855225 3.811593-2.3087127.276352-.0004274.551831.0305607.820958.0923527.260359.0567628.509804.1541923.738863.2885886v2.920516c-.216292-.1211773-.449401-.2106212-.691951-.2655014-1.10067-.3258462-2.271796.230461-2.697435 1.281333-.563663 1.1372648-.829734 2.395116-.774046 3.6593028-.057674 1.2336484.217481 2.460338.797502 3.5554108.368603.7968243 1.163423 1.3198612 2.052396 1.3505944.222018-.0032168.442715-.0342492.656767-.0923484.226158-.074757.445797-.1674078.656767-.277045l.046912 3.1282998ZM102.857492.2077926h2.544972v15.6068682h-2.544972V.2077926Zm-6.9546908 15.6068682V.2077926h5.4652378V3.093678h-3.0492742v3.2321916h2.7326192v2.9089725h-2.7326192v6.5798187h-2.4159636ZM91.2819777.2077926h2.5332434v15.6068682h-2.5332434V.2077926Zm-5.7584374 15.6068682V3.116765h-1.9116604V.2077927h6.3213803V3.093678h-1.8999325v12.6978958l-2.5097874.023087Zm-9.229919 0V.2077926h2.6036112c1.1349823-.100998 2.2602275.2765756 3.0961863 1.0389187.7298298.969401 1.0721047 2.169066.9616943 3.3707142.0390045.9175672-.1292264 1.8322287-.4925751 2.6781016-.2897806.6460746-.8241215 1.1554473-1.4894533 1.4198556l2.3455957 7.1223652h-2.6270672L78.650945 9.3849082v6.4297526h-2.3573237Zm2.4159636-8.888527h.2814715c.4624217.0162956.9025217-.195962 1.1727978-.5656335.3150857-.5007609.4627454-1.0861484.4222072-1.6738136.0505763-.540052-.0637652-1.0826718-.3283834-1.5583781-.2778535-.3555784-.7181434-.550593-1.1727978-.5194594h-.3283834l-.0469119 4.3172846Zm-9.3823827 8.8423529V.2077926h5.2541343V3.093678h-2.8381708v3.1513868h2.6505231v2.8627984h-2.5801552v3.6593027h2.8381708v3.0474949l-5.3245022-.0461741Zm-1.5480932-.1731531c-.2318424.1171789-.4755606.2100378-.7271346.277045-.2382429.0553468-.4823517.0824741-.7271347.0808846-1.5733468.0091752-3.0387365-.7862998-3.8702329-2.1010044-1.0670148-1.7019811-1.5862201-3.6817586-1.4894532-5.6794225-.0888499-2.0522505.4197704-4.0867767 1.4659973-5.8641192.7441254-1.399445 2.2070069-2.2855225 3.8115929-2.3087083.2763119.000273.551709.031252.8209585.0923483.2603584.0567628.5098034.1541923.7388627.2885886v2.920516c-.2203771-.1213268-.4573745-.210747-.7036787-.2655014-.212818-.0637398-.4343293-.0948866-.6567668-.0923484-.8857727.0435302-1.6708589.5750679-2.0289403 1.3736815-.5734943 1.134261-.8439248 2.393639-.7857745 3.6593027-.0542164 1.2370482.2206856 2.4665904.7975025 3.5669543.3704663.8004661 1.1708663 1.3241825 2.0641242 1.3505944.218231-.0023807.4351616-.033438.6450388-.0923483.230787-.0725218.4545121-.1652404.6684948-.277045l-.023456 3.0705821Zm-19.5036281.1731531L51.2192035.2077926h2.6153392l2.7678029 15.6068682h-2.4980594l-.4104792-2.7358193h-2.5097874l-.3870233 2.7358193-2.5215154-.0461741Zm3.3307459-5.1715067h1.6771009c-.1641917-1.0850929-.3166554-2.2279035-.4573911-3.4630625-.1407358-1.235159-.2580156-2.4587743-.3635674-3.7862816-.1290077 1.1543541-.2580155 2.3087083-.3987512 3.5554108-.1407358 1.2467025-.2814715 2.516492-.4339352 3.7401075l-.023456-.0461742Zm-9.3823827 4.6174167v-3.1860175c.2658219.3039316.5784631.5649132.9265103.7734173.2787355.1581905.5931466.2454759.9147823.2539579.374083.0385891.7455716-.0932137 1.0086061-.3578498.2640435-.3262579.3938174-.7383.3635674-1.1543542-.0697571-.741846-.421621-1.4303839-.9851502-1.9277714l-.4104793-.4501981c-.6446727-.6828657-1.1751236-1.4621327-1.5715491-2.3087084-.296456-.7342868-.4438777-1.5186292-.4339352-2.3087083-.0556034-1.1569637.2648263-2.3012655.9147823-3.2668223C43.4721423.506175 44.352204.0384151 45.2965744.0346394c.3481791.005297.6930222.067719 1.0203341.1846967.3851421.1471213.7481352.3451812 1.0789741.5887206V3.520789c-.3288684-.2006235-.6695828-.381793-1.0203342-.5425465-.2042629-.0872982-.4226825-.1381128-.6450388-.150066-.3457984-.0046032-.6728838.1542213-.8795984.427111-.2588334.3284375-.3842498.7399177-.3518393 1.1543542-.0032105.398979.0849798.7935397.2580155 1.1543542.327271.5524785.7210471 1.0640887 1.1727979 1.5237475.6824257.6192631 1.2569195 1.3446107 1.7005568 2.1470987.2505415.692282.3697989 1.4239626.3518394 2.1586423.0675732 1.1973984-.2706869 2.3829917-.9616943 3.3707142-.6187059.8073865-1.6004571 1.2646591-2.6270671 1.2236154-.3977578.0034371-.7935699-.055001-1.1727979-.1731532-.3564354-.1263508-.6892787-.3096558-.9851501-.5425464l-.011728-.0577177Zm-6.532484.6002641V.2077926h5.2541343V3.093678h-2.8381707v3.1513868h2.5684272v2.8627984h-2.5684272v3.6593027h2.8381707v3.0474949h-5.2541343Zm-8.0571212 0V.2077926h2.6036113c1.1355225-.1054763 2.2625787.272705 3.0961862 1.0389187.7256748.970998 1.0637349 2.1705188.9499663 3.3707142.0390045.9175672-.1292264 1.8322287-.4925751 2.6781016-.2880293.6432032-.8174955 1.1519349-1.4777253 1.4198556l2.3455957 7.1223652h-2.6270672l-2.0406682-6.4528397v6.4297526h-2.3573237Zm2.4042356-8.888527h.2814715c.4814758.0297361.9453232-.1833219 1.2314377-.5656335.3053015-.504382.4483982-1.0878882.4104793-1.6738136.0448401-.567406-.0860042-1.134872-.3752953-1.6276394-.2817538-.3506892-.7192746-.5444773-1.1727979-.5194593h-.3283834l-.0469119 4.3865458Zm-10.3909888 8.8423529V.2077926h2.5918832c1.1467045-.0775781 2.2701605.3444784 3.0727303 1.1543541.7516323.9953967 1.1063154 2.2275329.9968782 3.4630625.0917989 1.2286902-.2476826 2.4511634-.9616942 3.4630625-.6508713.8190692-1.6657411 1.2754676-2.720891 1.2236154h-.551215v6.3027737l-2.4276915-.0461741Zm2.4159635-8.842353h.2697435c.4650756.0157956.9065908-.2014903 1.1727979-.577177.3066423-.4673606.465798-1.0136368.4573911-1.5699216.0448574-.5740207-.094626-1.1474075-.3987513-1.639183-.2817757-.3519039-.7179642-.5493952-1.1727978-.5310029h-.2697435l-.0586399 4.3172846ZM7.3331083 15.8146609 8.5059062.2077926h3.2134661L12.376139 6.16426c.0938239.9003963.1759197 1.766162.2462876 2.597297 0 .831135.1172798 1.6391828.1524637 2.4241437.1055518-1.3736815.1876477-2.4587744.2580155-3.2552788.0703679-.7965044.1290078-1.385225.1759197-1.7661619L14.018056.2077926h3.1782822l1.04379 15.6068682h-2.4863314l-.2580155-7.2493441v-.7734173c-.0703679-1.8931408-.1055518-3.4630625-.1055518-4.6174166l-1.630189 12.6978958h-1.8061087L10.3941107 3.0475038c0 1.0620058 0 2.5857533-.1524637 4.5481554V8.611491l-.3870233 7.2031699H7.3331083Zm-6.3331083 0V.2077926h5.2658623V3.093678H3.4159635v3.1513868h2.5801553v2.8627984H3.4159636v3.6593027h2.8498987v3.0474949H1ZM50.5407381 78.5294118C53.0177495 62.8588235 45.399771 53 29.5095093 53 14.6474409 53 2.7881647 62.2235294.3812573 77.5529412-2.107438 93.4 7.8356597 102 22.9664604 102c10.3987742 0 21.4168013-4.9176471 25.7048352-15.7647059H33.1081862c-1.888909 2.7780173-5.07265 4.3719764-8.4124915 4.2117647-6.6715732 0-9.5692091-3.5294117-8.5293317-10.2117647h34.0822747l.2921004-1.7058823Zm-32.5984047-7.7058824c1.6574271-4.4974454 5.987845-7.421706 10.7492947-7.2588235 4.369822 0 7.9217629 2.8705882 8.026919 7.2588235H17.9423334ZM75.0154397 29.0025699c-5.3387936.1850141-9.828314 4.0001301-10.7932269 9.1718957-.4728615 2.2865983.1405362 4.6605907 1.6657887 6.4469913 1.5252525 1.7864007 3.7955158 2.7897993 6.1652971 2.7249044 5.3387936-.1850141 9.828314-4.0001302 10.7932269-9.1718957.4680356-2.285921-.1471517-4.6572172-1.6713539-6.4423877-1.5242022-1.7851705-3.7914592-2.7898403-6.1597319-2.729508Zm3.993494 26.8782581H62.4233416L55 102h16.6215695l7.3873642-46.119172ZM141 35.3925081C136.163839 33.171674 130.909997 32.0149376 125.591387 32c-9.441724 0-19.620534 4.1085739-27.2838917 10.905329-7.2913638 6.3772231-12.1640204 15.0851862-13.794043 24.6514432-1.5794705 10.0131815.432892 18.7820521 6.762474 25.4731581 6.1523796 6.4911463 14.7301367 10.1047917 23.6569597 9.9662267 5.428698 0 9.827817-1.338222 15.900003-3.1225165l3.322739-21.0124207c-4.282058 4.3811353-10.080209 6.9409944-16.192499 7.1489186-10.869097 0-16.964684-7.6771638-15.279915-18.3242395 1.649669-10.4709941 10.16711-18.6881418 20.860711-18.6881418 5.966889 0 11.348789 2.5825321 14.145037 7.4189105L141 35.3925081ZM116.780331 136.769957l2.347107-15.021459h-1.748595l.692397-4.566524h6.759669l-3.027769 19.587983h-5.022809Zm-11.395207.432618c-1.45263.078932-2.849503-.582289-3.731901-1.766523-.967377-1.497992-1.429032-3.279188-1.31438-5.071245.000326-2.0646.280748-4.119144.833223-6.104721.427643-1.723669 1.159456-3.352745 2.159339-4.806867.551854-.800507 1.274182-1.462095 2.112397-1.934764.769476-.446843 1.638545-.682777 2.52314-.684979 1.461766-.081723 2.866663.590231 3.743637 1.790558.951225 1.526803 1.403339 3.323943 1.290909 5.131331.002861 2.031578-.269656 4.053732-.809752 6.008583-.434322 1.725531-1.174178 3.354801-2.18281 4.806867-.562093.787912-1.282357 1.443511-2.112397 1.922747-.76189.457869-1.628021.702393-2.511405.709013Zm-.422479-6.008584c-.01964.37329.040432.746476.176033 1.093563.091094.221841.304853.364594.539834.3606.281653 0 .539835-.19236.786281-.588927.332761-.599608.585377-1.242262.751075-1.910729.366683-1.289935.652826-2.602459.856694-3.929614.197487-1.106717.307376-2.227958.328595-3.35279.017652-.378187-.046464-.7557-.187769-1.105579-.098927-.234755-.325359-.386177-.575041-.384562-.341743.032845-.638749.254033-.774545.576837-.316904.607413-.557439 1.253465-.715868 1.922746-.371172 1.305797-.661229 2.634349-.86843 3.977683-.189961 1.103506-.2959 2.220459-.316859 3.340772Zm-13.4137194 6.008584c-1.4443982.049567-2.8209503-.628292-3.6849587-1.814592-.9618488-1.500527-1.4230044-3.279794-1.3143801-5.071245.0003263-2.064599.2807475-4.119144.8332231-6.104721.4276433-1.723669 1.1594561-3.352745 2.1593389-4.806867.5518539-.800507 1.2741821-1.462094 2.1123967-1.934764.770077-.445333 1.6387539-.68116 2.5231405-.684978 1.4617658-.081723 2.8666626.59023 3.7436363 1.790558.963016 1.521943 1.4199342 3.321819 1.3026446 5.13133.0047691 2.032545-.2718106 4.055524-.8214876 6.008584-.4343215 1.72553-1.1741771 3.3548-2.1828099 4.806867-.5590599.790727-1.2799809 1.446924-2.1123967 1.922747-.7704906.484023-1.6544903.745622-2.5583471.757081Zm-.4224793-6.008584c-.0196398.37329.0404328.746476.176033 1.093563.0952809.223737.3132704.366218.5515703.360515.2816529 0 .5398347-.192275.786281-.588842.3279294-.600602.5765472-1.243124.7393388-1.910729.3666836-1.289935.6528266-2.602459.8566942-3.929614.1974873-1.106717.3073761-2.227958.3285951-3.35279.0234814-.378535-.0408618-.757387-.1877686-1.105579-.0989277-.234755-.325359-.386177-.5750413-.384562-.3417431.032845-.6387487.254033-.7745455.576837-.3169035.607413-.5574383 1.253465-.7158678 1.922746-.3656146 1.307253-.655595 2.635455-.8684297 3.977683-.1899616 1.103506-.2959002 2.220459-.3168595 3.340772Zm-13.1672727 5.575966.5867768-3.989699h-6.642314l.633719-4.085837 6.8418182-11.512447h6.1376859l-1.7955372 11.620601h1.3495868l-.633719 3.977683h-1.3261157l-.6219835 3.989699h-4.5299173Zm1.1735537-7.967382 1.0209917-6.585408-3.7084297 6.585408h2.687438Zm-16.1128926 7.967382 2.3471074-15.021459h-1.748595l.6923967-4.566524h6.7596694l-3.0277686 19.587983h-5.0228099Zm-18.3426446.384549c-1.6800215.058568-3.2919183-.682418-4.3656199-2.006867-1.1624571-1.524975-1.7498502-3.427559-1.6547107-5.359656-.0012926-1.786303.2315858-3.564701.6923967-5.287554.3794045-1.539451 1.0102804-3.002128 1.8659504-4.32618.6778955-1.044324 1.59171-1.905869 2.663967-2.511588 1.0611502-.577264 2.2489112-.866851 3.4502479-.841202 1.6845282-.073845 3.3067309.659008 4.3890909 1.982833 1.1515188 1.538329 1.7261323 3.448507 1.6195041 5.383691.0075004 1.781964-.221481 3.556709-.6806611 5.275536-.3813403 1.542514-1.0120306 3.008823-1.8659504 4.338198-.6698614 1.042673-1.5756993 1.904288-2.6404959 2.511588-1.0599966.568914-2.2418534.858045-3.4385124.841201h-.0352066Zm-.6454546-6.921888c-.0369156.54843.0598702 1.097656.2816529 1.598283.1905677.334652.5496091.530115.9271075.504721.37429.001039.7302464-.16584.9740496-.456652.3387584-.427529.5865838-.922796.7276033-1.454077.3288176-1.025078.5645283-2.079049.7041322-3.148498.1785816-1.156712.2688275-2.325919.2699173-3.496996.0350321-.556105-.0615904-1.11265-.2816528-1.622317-.1573125-.327973-.4883751-.530436-.8449587-.516739-.3924633-.002078-.7691071.158262-1.0444628.444636-.3422196.418951-.5870039.91205-.7158678 1.44206-.32438 1.051639-.5638084 2.128798-.7158678 3.2206-.1689576 1.153509-.2513475 2.318579-.2464463 3.484979h-.0352066Zm-18.0140495.516738c.5589917.494985 1.1881472.900176 1.8659504 1.201717.5970774.264768 1.2388862.40764 1.8894215.420601.4679044.022109.9261031-.141464 1.2791735-.456653.3124992-.316544.4825237-.751806.4694215-1.201716-.006678-.474402-.1450717-.937059-.3990083-1.333906-.4310327-.650931-.9395766-1.244341-1.5138843-1.766523-.7478864-.692683-1.3819054-1.504226-1.8776859-2.403434-.3414715-.709768-.514376-1.492099-.5046281-2.283262-.0794894-1.673664.5541986-3.300287 1.7368595-4.458369 1.2989211-1.148015 2.9807097-1.73785 4.6942149-1.646352.7907638-.012484 1.5797538.080427 2.3471074.276395.7700149.192504 1.5146803.478959 2.2180165.853219l-.7628099 4.806867c-.5218658-.378256-1.0850719-.692832-1.6781818-.937339-.5004243-.205635-1.0334176-.315607-1.572562-.324464-.3840047-.021566-.7616313.10733-1.0561983.360515-.2681629.246388-.4109417.605256-.3872728.973391 0 .55279.4928926 1.333905 1.4786777 2.33133l.2933885.288412c.7992521.73396 1.463095 1.609118 1.9598347 2.583691.3325324.780094.4966576 1.624512.481157 2.475537.0630209 1.832193-.6365568 3.605636-1.9246281 4.87897-1.4337161 1.269823-3.2947783 1.916562-5.1871075 1.802575-.8946166.006628-1.7862432-.10649-2.6522314-.336481-.7487344-.183112-1.4599191-.500451-2.1006611-.937339l.9036364-5.167382Zm-8.7312397 6.008584 3.0277686-19.587983h5.3514049l-3.0395041 19.587983h-5.3396694ZM0 141h142v-28H0v28ZM137.617754 150.117665a.5766869.5766869 0 0 1 0-.134588v-.18353c.012014-.226738-.049732-.45104-.175145-.636237-.127928-.147776-.31184-.228448-.502082-.220236-.239407.000548-.46618.112638-.618845.305883-.185738.25217-.30276.552388-.338613.868708h1.634685Zm1.167632 1.639535c-.142335.617731-.464742 1.173674-.92243 1.590593-.430448.391798-.982813.605043-1.55295.599531-.577149.036922-1.139314-.201408-1.529598-.648473-.375623-.546123-.557347-1.212608-.513758-1.884241-.059555-1.003501.194585-2.000008.723932-2.838596.457078-.674095 1.20813-1.060696 1.99665-1.027768.549399-.034801 1.087476.173864 1.482893.57506.372842.443895.561881 1.024959.525434 1.615064v.624002c0 .220236-.058381.489413-.105087.795297h-3.082548v.171294a1.2818802 1.2818802 0 0 0 0 .232471c-.012922.253339.057108.503705.198497.70965.128568.163763.323279.254445.525435.244706.172502.004582.33996-.061221.467053-.18353.145101-.160527.245978-.359256.291908-.57506h1.494569Zm-7.683019 2.080006.712256-4.735073h-.583816l.22185-1.431534h.583816l.268555-1.823064h1.58798l-.268556 1.823064h.712256l-.22185 1.431534h-.712256l-.712255 4.735073h-1.58798Zm-2.965785 0 .583816-3.8786V149.726135c.01185-.113033-.017329-.226599-.081734-.318119-.069383-.076812-.167849-.117187-.268556-.110118-.226215.010773-.430296.145592-.537111.354825-.175627.306361-.287071.648358-.326936 1.003297l-.47873 3.181186h-1.599655l.934105-6.117665h1.541274l-.105086.832002c.242536-.273442.521811-.508383.829018-.697414.233991-.129067.494533-.196271.758961-.195765.283792-.021268.561911.090822.758961.305883.188963.244228.28095.55531.256879.868709a5.4103178 5.4103178 0 0 1 0 .526119c0 .220236-.035029.489413-.105087.807532l-.57214 3.670599h-1.587979Zm-4.413649-3.670599c.0064-.044613.0064-.089977 0-.134589v-.18353c.012014-.226738-.049732-.45104-.175145-.636237-.124826-.15231-.310934-.233945-.502082-.220236-.239406.000548-.46618.112638-.618845.305883-.185738.25217-.302759.552388-.338613.868709h1.634685Zm1.167632 1.639534c-.133142.621663-.457177 1.180413-.922429 1.590593-.427423.389004-.97515.602061-1.541275.599531-.577148.036922-1.139314-.201408-1.529598-.648472-.385298-.541634-.571798-1.210434-.525434-1.884241-.053674-1.002877.19998-1.997476.723932-2.838597.459369-.677833 1.215738-1.064908 2.008327-1.027768.548969-.031786 1.085929.176445 1.482893.575061.364202.448432.548353 1.027334.513758 1.615063v.624002c0 .220236 0 .489414-.093411.795297h-3.094225v.403766c-.012922.253338.057109.503705.198498.709649.133324.164169.331604.254505.53711.244707.169145.005335.333238-.060799.455377-.18353.149348-.159089.25433-.35795.303584-.575061h1.482893Zm-5.83816 2.080006h-1.552951l.92243-6.117665h1.587979l-.957458 6.117665Zm-.537111-8.050847c-.004928-.329446.117151-.64705.338613-.880944.210829-.237704.507678-.371016.817343-.36706.224484-.014718.44462.069567.607168.232471.15913.173641.243513.407959.233527.648473 0 .675738-.522767 1.223533-1.167632 1.223533-.215748.010398-.424956-.079081-.57214-.244707-.168415-.182468-.253529-.432196-.233526-.685178l-.023353.073412Zm-6.363594 7.952965L113.622916 144h1.58798l-.642198 4.147777c.200683-.20827.428728-.385433.677227-.526119.203228-.106949.426525-.165445.653873-.171295.379043-.013897.732503.199785.910753.55059.237767.504396.342578 1.06621.303585 1.627299.03651 1.046852-.167728 2.087557-.595493 3.034362-.227846.683447-.817816 1.162683-1.506245 1.22357-.229772.00176-.455722-.06166-.653874-.183567-.219442-.129194-.404192-.314372-.53711-.538354l-.081735.611766-1.587979.012236Zm2.860698-4.710603c-.119985.000943-.234191.054131-.31526.146824-.101268.145226-.180075.306258-.233527.477178-.105106.327678-.187061.663016-.245203 1.003297-.055857.306686-.087103.617735-.09341.929885-.011505.190001.024729.379842.105087.55059.073068.112872.196924.177765.326937.171295.233526 0 .432024-.256942.595492-.746355.179131-.580724.265915-1.188361.256879-1.798594.011682-.192704-.020328-.385569-.093411-.562825-.067852-.103564-.184354-.159909-.303584-.146824v-.024471Zm-5.499547 4.710603.548788-3.841894c-.005499-.044678-.005499-.089911 0-.134589v-.171295c.005155-.091497-.019552-.182109-.070058-.256941-.054323-.061393-.130285-.09677-.210174-.097883-.187129.008182-.357991.113771-.455377.281413-.149586.21109-.242334.460399-.268555.721884l-.502082 3.499305h-1.55295l.560463-3.841894v-.134589c.006742-.052784.006742-.106275 0-.159059.009482-.097713-.020111-.195172-.081734-.269177-.05613-.065943-.137613-.101894-.22185-.097883-.181728.016037-.345864.120138-.4437.281413-.144509.213994-.236721.461863-.268556.721884l-.502082 3.499305h-1.564626l.922429-6.117666h1.494569l-.12844.844238c.23827-.276717.513583-.515756.817343-.709649.220997-.130012.470493-.19748.723932-.195765.234843-.013513.465389.069943.642197.232471.174241.17696.274924.418737.280232.672943.226652-.271488.490257-.506485.782313-.697414.23259-.13427.49342-.205753.758961-.208.264406-.021658.523366.086886.700579.293648.171015.266552.253119.58488.233527.905414a3.8461218 3.8461218 0 0 1 0 .428237c0 .18353 0 .416001-.093411.672943l-.583816 3.927541-1.517922-.048941Zm-11.512851 0 3.082548-9.176498h2.463704l.548787 9.176498h-1.774801v-1.578358h-2.020003l-.4904054 1.578358H98Zm2.708906-3.095539h1.541274l-.070057-3.487069v-1.199063a1.4740479 1.4740479 0 0 1 0-.232471c-.058382.18353-.105087.379295-.163469.611767-.058382.232471-.140116.501648-.233526.807531l-1.074222 3.499305Z"/>
  </g>
</svg>
