<svg width="142" height="155" viewBox="0 0 142 155" xmlns="http://www.w3.org/2000/svg"><g fill="#FFF" fill-rule="evenodd"><path d="M1.481 16.037V.208h5.25v2.927H3.892v3.198h2.573v2.905H3.892v3.708h2.839v3.091h-5.25Zm6.318 0L9.022.208h3.207l.648 6.04c.097.917.178 1.798.246 2.638.064.844.116 1.662.157 2.458.102-1.395.19-2.498.26-3.302a89.61 89.61 0 0 1 .175-1.794l.806-6.04h3.172l1.051 15.829h-2.522l-.266-7.35-.026-.781a129.973 129.973 0 0 1-.111-4.726l-1.625 12.857H12.39L10.861 3.091c0 1.077-.053 2.616-.155 4.618-.023.456-.041.796-.05 1.022l-.385 7.306H7.799Zm14.706-8.964c.03 0 .073.004.132.011.061.007.105.011.134.011.528 0 .931-.192 1.208-.581.278-.385.415-.94.415-1.665 0-.751-.132-1.307-.394-1.666-.26-.355-.672-.536-1.229-.536a1.09 1.09 0 0 0-.134.011 1.246 1.246 0 0 1-.132.011v4.404Zm-2.41 8.964V.208h2.589c1.374 0 2.395.377 3.061 1.132.668.755 1.001 1.91 1.001 3.464 0 1.484-.321 2.635-.966 3.453-.645.822-1.547 1.233-2.711 1.233-.146 0-.26 0-.336-.004a3.203 3.203 0 0 1-.219-.019l-.009 6.57h-2.41Zm10.378-8.964c.029 0 .076.004.14.011.067.007.114.011.143.011.54 0 .949-.192 1.22-.574.274-.384.411-.947.411-1.694 0-.759-.125-1.311-.376-1.658-.251-.349-.651-.522-1.205-.522-.085 0-.152.003-.196.007-.047.004-.087.007-.128.015l-.009 4.404Zm-2.411 8.964V.208h2.592c1.424 0 2.457.355 3.096 1.062.642.71.963 1.839.963 3.394 0 1.128-.163 2.035-.49 2.716-.33.685-.823 1.162-1.485 1.436l2.396 7.221h-2.627L30.473 9.49v6.547h-2.411Zm8.038 0V.208h5.25v2.927h-2.84v3.198h2.574v2.905H38.51v3.708h2.84v3.091H36.1Zm6.549-.552v-3.286c.312.348.621.607.922.781.303.174.61.259.916.259.423 0 .753-.141.995-.422.243-.281.365-.666.365-1.151 0-.599-.327-1.251-.983-1.95a13.15 13.15 0 0 1-.412-.456c-.761-.869-1.287-1.647-1.573-2.339-.283-.688-.426-1.469-.426-2.346 0-1.366.304-2.469.911-3.313C43.971.422 44.765 0 45.745 0c.347 0 .689.063 1.027.189.342.126.698.326 1.074.592v2.795c-.437-.267-.779-.452-1.021-.552a1.731 1.731 0 0 0-.645-.152c-.359 0-.654.145-.881.43-.228.285-.342.659-.342 1.121 0 .404.085.781.257 1.133.172.351.569.869 1.196 1.554.838.914 1.378 1.669 1.617 2.272.24.607.359 1.333.359 2.188 0 1.439-.321 2.575-.963 3.412-.639.833-1.515 1.251-2.621 1.251-.42 0-.811-.063-1.167-.185a3.113 3.113 0 0 1-.986-.563Zm9.38-4.685h1.66a84.88 84.88 0 0 1-.461-3.475 104.376 104.376 0 0 1-.359-3.831 462.723 462.723 0 0 1-.84 7.306Zm-3.324 5.237L51.611.208h2.609l2.77 15.829h-2.489l-.418-2.776h-2.507l-.385 2.776h-2.486Zm19.466-.174a3.175 3.175 0 0 1-1.454.37c-1.59 0-2.883-.733-3.878-2.202-.996-1.466-1.492-3.39-1.492-5.766 0-2.473.488-4.471 1.46-5.988C63.778.759 65.048 0 66.615 0c.289 0 .564.03.82.093.257.063.502.155.736.289v2.96a3.331 3.331 0 0 0-.698-.27 2.598 2.598 0 0 0-.662-.088c-.832 0-1.509.466-2.026 1.398-.519.933-.779 2.169-.779 3.709 0 1.484.266 2.683.8 3.601.534.918 1.22 1.377 2.057 1.377.21 0 .426-.034.645-.097a3.4 3.4 0 0 0 .663-.285v3.176Zm1.546.174V.208h5.251v2.927h-2.84v3.198h2.574v2.905h-2.574v3.708h2.84v3.091h-5.251Zm9.345-8.964c.03 0 .076.004.14.011.068.007.114.011.143.011.54 0 .949-.192 1.22-.574.275-.384.412-.947.412-1.694 0-.759-.126-1.311-.376-1.658-.252-.349-.651-.522-1.206-.522-.085 0-.152.003-.196.007-.046.004-.087.007-.128.015l-.009 4.404Zm-2.41 8.964V.208h2.591c1.424 0 2.458.355 3.097 1.062.642.71.963 1.839.963 3.394 0 1.128-.163 2.035-.49 2.716-.33.685-.823 1.162-1.486 1.436l2.396 7.221h-2.626L79.062 9.49v6.547h-2.41Zm9.207 0V3.135h-1.905V.208h6.315v2.927h-1.905v12.902h-2.505Zm5.747 0h2.539V.208h-2.539v15.829Zm4.626 0V.208h5.387v2.927h-2.977v3.283h2.72v2.916h-2.72v6.703h-2.41Zm6.934 0h2.539V.208h-2.539v15.829Zm11.046-.174a3.15 3.15 0 0 1-1.453.37c-1.591 0-2.883-.733-3.879-2.202-.995-1.466-1.491-3.39-1.491-5.766 0-2.473.487-4.471 1.459-5.988C109.82.759 111.09 0 112.657 0c.289 0 .563.03.82.093s.502.155.735.289v2.96a3.303 3.303 0 0 0-.697-.27 2.612 2.612 0 0 0-.663-.088c-.831 0-1.508.466-2.025 1.398-.519.933-.779 2.169-.779 3.709 0 1.484.265 2.683.799 3.601.535.918 1.22 1.377 2.058 1.377.21 0 .426-.034.645-.097.219-.066.441-.162.662-.285v3.176Zm3.821-5.063h1.66a84.88 84.88 0 0 1-.461-3.475 104.376 104.376 0 0 1-.359-3.831 462.723 462.723 0 0 1-.84 7.306Zm-3.324 5.237L117.615.208h2.609l2.77 15.829h-2.489l-.418-2.776h-2.507l-.385 2.776h-2.486Zm11.653-2.928h.195c.885 0 1.559-.422 2.026-1.262.467-.844.7-2.065.7-3.671 0-1.721-.227-2.998-.68-3.834-.452-.833-1.143-1.251-2.078-1.251h-.163v10.018Zm-2.463 2.928V.208h2.139c1.926 0 3.362.655 4.311 1.961.948 1.31 1.424 3.298 1.424 5.963 0 1.606-.175 2.949-.522 4.033-.348 1.085-.891 1.98-1.632 2.691a3.837 3.837 0 0 1-1.491.911c-.558.181-1.343.27-2.355.27h-1.874ZM135.29 10.8h1.66a84.88 84.88 0 0 1-.461-3.475 104.376 104.376 0 0 1-.359-3.831 462.723 462.723 0 0 1-.84 7.306Zm-3.325 5.237L134.872.208h2.609l2.77 15.829h-2.49l-.417-2.776h-2.507l-.385 2.776h-2.487ZM0 141.301h141.732v-27.297H0v27.297Zm23.414-4.109 3.015-19.053h5.324l-3.03 19.053h-5.309Zm8.695-5.858a7.065 7.065 0 0 0 1.867 1.149c.655.272 1.278.405 1.88.405.53 0 .953-.146 1.269-.436.312-.294.468-.69.468-1.193 0-.437-.129-.87-.392-1.301-.259-.433-.766-1.003-1.514-1.716-.905-.882-1.529-1.653-1.867-2.325-.339-.668-.508-1.408-.508-2.218 0-1.818.575-3.261 1.729-4.335 1.153-1.068 2.716-1.603 4.69-1.603.802 0 1.564.088 2.285.267.722.178 1.457.455 2.206.828l-.758 4.647a7.908 7.908 0 0 0-1.675-.914 4.349 4.349 0 0 0-1.563-.311c-.441 0-.793.115-1.051.347-.254.227-.384.544-.384.945 0 .538.49 1.296 1.475 2.271.125.121.218.214.289.285.993.976 1.644 1.809 1.956 2.504.316.699.472 1.501.472 2.414 0 2.036-.628 3.644-1.884 4.816-1.261 1.176-2.98 1.764-5.163 1.764-.931 0-1.813-.112-2.646-.334-.829-.219-1.528-.525-2.094-.918l.913-5.038Zm17.948-.499c0 .712.094 1.234.285 1.559.192.325.499.49.918.49.37 0 .695-.147.971-.445.272-.295.517-.767.735-1.421.289-.842.521-1.862.7-3.061a23.12 23.12 0 0 0 .267-3.407c0-.713-.094-1.239-.277-1.573a.901.901 0 0 0-.846-.503c-.41 0-.753.147-1.038.436-.281.294-.521.758-.722 1.403-.289.878-.525 1.92-.713 3.132a22.356 22.356 0 0 0-.28 3.39Zm.642 6.735c-1.804 0-3.252-.65-4.348-1.955-1.095-1.305-1.643-3.043-1.643-5.208 0-1.768.226-3.483.685-5.154.455-1.67 1.074-3.073 1.858-4.205.766-1.095 1.653-1.911 2.655-2.45 1.006-.539 2.151-.81 3.439-.81 1.835 0 3.296.641 4.374 1.924 1.078 1.283 1.617 3.029 1.617 5.238 0 1.778-.227 3.488-.677 5.141-.454 1.657-1.078 3.061-1.866 4.219-.74 1.087-1.617 1.902-2.633 2.445-1.011.544-2.165.815-3.461.815Zm22.927-15.528c-.49 0-.886.356-1.194 1.069-.306.713-.463 1.639-.463 2.78 0 .428.071.744.21.957.138.214.348.321.623.321.499 0 .901-.361 1.217-1.083.311-.721.467-1.644.467-2.766 0-.41-.075-.726-.223-.944a.717.717 0 0 0-.637-.334Zm-1.305 8.468c-.32.147-.628.258-.913.33-.289.067-.57.102-.851.102-1.171 0-2.084-.405-2.726-1.212-.646-.81-.967-1.959-.967-3.447 0-2.419.664-4.451 1.991-6.09 1.328-1.639 2.99-2.459 4.99-2.459 1.733 0 3.096.504 4.094 1.514.992 1.007 1.492 2.393 1.492 4.148 0 1.879-.575 3.991-1.724 6.33-1.145 2.343-2.824 4.828-5.033 7.466h-5.707a39.44 39.44 0 0 0 2.859-3.203 40.634 40.634 0 0 0 2.495-3.479Zm12.451 1.256c0 .477.058.833.179 1.069.115.236.298.352.539.352.281 0 .539-.192.784-.575.245-.382.494-1.007.743-1.866.357-1.229.642-2.499.856-3.818.213-1.318.321-2.405.321-3.26 0-.477-.063-.838-.188-1.083-.129-.245-.316-.366-.57-.366-.29 0-.548.188-.775.562-.231.374-.467.998-.713 1.866a32.764 32.764 0 0 0-.864 3.867c-.209 1.305-.312 2.388-.312 3.252Zm.419 5.858c-1.608 0-2.851-.575-3.72-1.724-.868-1.149-1.305-2.793-1.305-4.931 0-2.032.276-4.01.824-5.943.549-1.928 1.266-3.488 2.152-4.672.601-.816 1.301-1.444 2.107-1.885a5.168 5.168 0 0 1 2.513-.659c1.625 0 2.872.579 3.732 1.737.86 1.158 1.292 2.824 1.292 4.998 0 2.018-.271 3.974-.811 5.867-.538 1.893-1.264 3.447-2.177 4.669a6.616 6.616 0 0 1-2.103 1.87c-.807.45-1.644.673-2.504.673Zm13.364-5.858c0 .477.059.833.178 1.069.116.236.299.352.54.352.281 0 .539-.192.784-.575.245-.382.494-1.007.744-1.866.356-1.229.641-2.499.855-3.818.213-1.318.321-2.405.321-3.26 0-.477-.063-.838-.188-1.083-.129-.245-.316-.366-.57-.366-.29 0-.548.188-.775.562-.232.374-.467.998-.713 1.866a32.764 32.764 0 0 0-.864 3.867c-.209 1.305-.312 2.388-.312 3.252Zm.419 5.858c-1.608 0-2.85-.575-3.72-1.724-.868-1.149-1.305-2.793-1.305-4.931 0-2.032.276-4.01.824-5.943.549-1.928 1.266-3.488 2.152-4.672.601-.816 1.301-1.444 2.107-1.885a5.168 5.168 0 0 1 2.513-.659c1.626 0 2.873.579 3.732 1.737.86 1.158 1.293 2.824 1.293 4.998 0 2.018-.273 3.974-.812 5.867-.538 1.893-1.265 3.447-2.178 4.669-.593.797-1.291 1.42-2.102 1.87-.807.45-1.644.673-2.504.673Zm11.356-.432 2.298-14.616h-1.737l.69-4.437h6.736l-3.016 19.053h-4.971ZM18.635 71.72c1.73-4.726 6.047-7.223 10.773-7.223 4.37 0 7.93 2.854 8.041 7.223H18.635Zm32.669 7.668c2.471-15.604-5.16-25.412-21.032-25.412-14.891 0-26.778 9.184-29.191 24.432-2.5 15.782 7.469 24.341 22.627 24.341 10.433 0 21.463-4.903 25.758-15.692H33.862c-2.264 3.031-4.944 4.19-8.421 4.19-6.688 0-9.6-3.566-8.556-10.164h34.15l.269-1.695ZM78.685 55.492H62.456l-7.242 45.742h16.228l7.243-45.742Zm-3.893-26.661c-4.994 0-9.744 4.102-10.535 9.095-.791 4.993 2.662 9.095 7.655 9.095s9.744-4.102 10.535-9.095c.791-4.993-2.662-9.095-7.655-9.095ZM140.925 35.607c-4.833-2.139-9.806-3.388-15.423-3.388-9.452 0-19.642 4.102-27.314 10.879-7.465 6.598-12.339 15.425-13.794 24.61-1.581 9.986.424 18.724 6.766 25.411 5.952 6.331 14.304 9.898 23.667 9.898 5.438 0 9.841-1.338 15.92-3.121l3.317-20.954c-4.347 4.37-10.492 7.133-16.198 7.133-10.878 0-16.976-7.667-15.296-18.278 1.651-10.433 10.173-18.636 20.873-18.636 5.974 0 11.36 2.586 14.165 7.401l3.317-20.955M99.624 154.132l-.506-.848a3.454 3.454 0 0 1-.576.17 2.885 2.885 0 0 1-.584.058c-.843 0-1.492-.275-1.949-.823-.458-.55-.686-1.331-.686-2.34 0-.77.098-1.557.297-2.359.199-.801.456-1.472.774-2.014a2.858 2.858 0 0 1 1.082-1.076c.45-.252.95-.38 1.503-.38.878 0 1.548.269 2.01.807.462.536.691 1.316.691 2.338 0 .996-.129 1.938-.388 2.831-.258.891-.577 1.528-.952 1.909l.505.861-1.221.866Zm-1.926-3.303 1.174-.926.481.819c.176-.61.316-1.205.416-1.784.101-.579.15-1.065.15-1.46 0-.412-.086-.726-.259-.944-.172-.215-.423-.324-.753-.324-.283 0-.532.094-.739.285-.21.191-.378.472-.505.846a10.017 10.017 0 0 0-.407 1.636 9.561 9.561 0 0 0-.16 1.57c0 .405.078.715.234.933.158.215.382.324.676.324.043 0 .113-.008.209-.025h.025l-.542-.95Zm5.054-3.326h1.576l-.578 3.681-.004.049c-.029.181-.044.3-.044.362 0 .16.041.281.124.365.082.084.201.127.357.127.332 0 .558-.373.673-1.119v-.018l.542-3.447h1.593l-.655 4.03c-.109.686-.345 1.186-.71 1.505-.365.316-.889.474-1.57.474-.633 0-1.113-.14-1.439-.421-.327-.281-.491-.694-.491-1.24 0-.139.014-.337.043-.589.027-.252.078-.614.15-1.088l.433-2.671Zm6.674 4.523a.44.44 0 0 0 .326-.154c.097-.101.179-.253.247-.454.092-.265.17-.577.233-.94.064-.364.097-.661.097-.893 0-.232-.037-.407-.109-.522-.072-.113-.185-.17-.336-.17-.232 0-.432.242-.598.727-.166.486-.25 1.077-.25 1.773 0 .222.031.382.092.483.064.1.162.15.298.15Zm2.864-4.523-.939 5.9h-1.576l.096-.614c-.248.277-.472.472-.669.589a1.201 1.201 0 0 1-.624.175c-.417 0-.729-.17-.934-.511-.207-.341-.31-.856-.31-1.546 0-1.195.207-2.17.622-2.927.415-.758.952-1.138 1.61-1.138.197 0 .383.056.562.166.178.109.343.276.495.495l.096-.589h1.571Zm.211 5.9 1.474-9.322h1.605l-1.467 9.322h-1.612Zm3.878-7.698c0-.325.113-.606.341-.842.226-.236.497-.355.815-.355.256 0 .46.076.614.228.151.154.227.357.227.614 0 .336-.117.624-.351.86a1.153 1.153 0 0 1-.845.355.762.762 0 0 1-.579-.238c-.148-.158-.222-.365-.222-.622Zm.542 7.698h-1.587l.93-5.9h1.595l-.938 5.9Zm3.5-1.377c.101 0 .197-.054.289-.161.093-.104.173-.254.241-.447.092-.277.17-.593.234-.95.063-.356.096-.651.096-.883 0-.232-.037-.407-.109-.522-.071-.113-.184-.17-.336-.17-.232 0-.431.246-.598.737-.166.491-.25 1.086-.25 1.788 0 .205.035.357.105.458.069.1.18.15.328.15Zm3.363-7.945-1.48 9.322h-1.516l.097-.589c-.281.273-.523.464-.725.573a1.293 1.293 0 0 1-.63.166c-.417 0-.729-.168-.934-.505-.207-.337-.31-.846-.31-1.527 0-1.199.197-2.183.593-2.95.394-.768.895-1.152 1.501-1.152.244 0 .466.055.667.168.199.113.376.281.53.505l.618-4.011h1.589Zm1.905 7.945a.44.44 0 0 0 .326-.154c.097-.101.179-.253.246-.454.093-.265.171-.577.234-.94.064-.364.097-.661.097-.893 0-.232-.037-.407-.109-.522-.072-.113-.185-.17-.337-.17-.231 0-.431.242-.597.727-.166.486-.25 1.077-.25 1.773 0 .222.031.382.092.483.064.1.162.15.298.15Zm2.864-4.523-.939 5.9h-1.576l.096-.614c-.248.277-.472.472-.669.589a1.201 1.201 0 0 1-.624.175c-.417 0-.729-.17-.934-.511-.208-.341-.31-.856-.31-1.546 0-1.195.207-2.17.622-2.927.414-.758.952-1.138 1.609-1.138.197 0 .384.056.563.166.178.109.343.276.494.495l.097-.589h1.571Zm2.489 4.523c.101 0 .198-.054.29-.161a1.32 1.32 0 0 0 .24-.447c.093-.277.171-.593.234-.95.064-.356.097-.651.097-.883 0-.232-.037-.407-.109-.522-.072-.113-.185-.17-.337-.17-.232 0-.431.246-.597.737-.166.491-.251 1.086-.251 1.788 0 .205.035.357.105.458.07.1.181.15.328.15Zm3.363-7.945-1.48 9.322h-1.515l.097-.589c-.282.273-.524.464-.725.573a1.296 1.296 0 0 1-.63.166c-.417 0-.729-.168-.934-.505-.208-.337-.31-.846-.31-1.527 0-1.199.197-2.183.593-2.95.394-.768.895-1.152 1.5-1.152.245 0 .467.055.668.168.199.113.376.281.529.505l.618-4.011h1.589Zm4.348 7.337c-.168.643-.476 1.152-.926 1.527a2.339 2.339 0 0 1-1.552.567c-.669 0-1.18-.205-1.531-.616-.351-.413-.526-1.014-.526-1.809 0-1.153.243-2.059.729-2.711.485-.655 1.154-.982 2.008-.982.638 0 1.133.183 1.484.548.351.364.526.879.526 1.546 0 .185-.011.384-.031.598-.019.215-.051.466-.097.755h-3.091a2.36 2.36 0 0 0-.025.386c0 .292.064.519.193.679.127.161.306.241.536.241.185 0 .339-.06.466-.179.125-.117.226-.302.298-.55h1.539Zm-1.209-1.575a1.9 1.9 0 0 0 .01-.117c.002-.043.002-.102.002-.178 0-.261-.059-.464-.176-.608-.119-.146-.286-.217-.497-.217-.242 0-.45.1-.624.301-.175.201-.287.474-.339.819h1.624Z"/></g></svg>